<svg version="1" xmlns="http://www.w3.org/2000/svg" width="346.667" height="346.667" viewBox="0 0 260.000000 260.000000"><path d="M106.6 1.5c-.4 1.2-2.3 1.5-8.5 1.5-7.1 0-8 .2-8.6 2-.5 1.7-1.5 2-6.1 2-4.3 0-5.6.4-6.6 2-.7 1.1-2.4 2-3.8 2-3 0-4.4.9-5.3 3.2-.4 1.3-1.7 1.8-4.3 1.8-2.7 0-3.7.5-4.1 2-.3 1.1-1.2 2-2 2s-1.7.9-2 2c-.3 1-1.3 2.2-2.4 2.5-1 .3-2.1 1.5-2.4 2.6C50 28.5 49 29 46.3 29c-2.6 0-3.6.5-4 2-.3 1.1-1 2-1.7 2-1.4 0-7.6 6.4-7.6 7.9 0 .6-.9 1.1-2 1.1-1.7 0-2 .7-2 3.9 0 3.1-.5 4.1-1.9 4.6-1.1.3-2.3 1.4-2.6 2.4C24.2 54 23 55 22 55.3c-1.1.3-2 1.2-2 2s-.9 1.7-2 2c-1.5.4-2 1.4-2 4.1 0 2.6-.5 3.9-1.7 4.3-2.4.9-3.3 2.3-3.3 5.3 0 1.4-.9 3.1-2 3.8-1.6 1-2 2.3-2 6.6 0 4.6-.3 5.6-2 6.1-1.8.6-2 1.5-2 8.6 0 6.2-.3 8.1-1.5 8.5-1.3.5-1.5 4.1-1.5 23.4 0 19.3.2 22.9 1.5 23.4 1.2.4 1.5 2.3 1.5 8.5 0 7.1.2 8 2 8.6 1.7.5 2 1.5 2 6.1 0 4.3.4 5.6 2 6.6 1.1.7 2 2.4 2 3.8 0 3 .9 4.4 3.3 5.3 1.2.4 1.7 1.7 1.7 4.3 0 2.7.5 3.7 2 4.1 1.1.3 2 1.2 2 2s.9 1.7 2 2c1 .3 2.2 1.3 2.5 2.4.3 1 1.5 2.1 2.6 2.4 1.4.5 1.9 1.5 1.9 4.2 0 2.6.5 3.6 2 4 1.1.3 2 1 2 1.7 0 1.4 6.3 7.6 7.7 7.6.6 0 1.3.9 1.6 2 .4 1.5 1.4 2 4 2 2.7 0 3.7.5 4.2 1.9.3 1.1 1.5 2.3 2.6 2.6 1 .4 1.9 1.3 1.9 2.2 0 .8.9 1.7 1.9 2 1.1.3 2.1 1.3 2.4 2.4.4 1.4 1.4 1.9 4.1 1.9 2.6 0 3.9.5 4.3 1.8.9 2.3 2.3 3.2 5.3 3.2 1.4 0 3.1.9 3.8 2 1 1.6 2.3 2 6.6 2 4.6 0 5.6.3 6.1 2 .6 1.8 1.5 2 8.6 2 6.2 0 8.1.3 8.5 1.5.9 2.2 45.9 2.2 46.8 0 .4-1.2 2.3-1.5 8.5-1.5 7.1 0 8-.2 8.6-2 .5-1.7 1.5-2 6.1-2 4.3 0 5.6-.4 6.6-2 .7-1.1 2.4-2 3.8-2 3 0 4.4-.9 5.3-3.3.4-1.2 1.7-1.7 4.3-1.7 2.7 0 3.7-.5 4.1-1.9.3-1.1 1.3-2.1 2.4-2.4 1-.3 1.9-1.2 1.9-2 0-1.1 1.2-1.7 3.8-1.9 2.7-.2 4-.9 4.7-2.5.5-1.2 1.7-2.4 2.7-2.6 1-.3 1.8-1.2 1.8-2.1 0-.9.5-1.6 1.1-1.6 1.5 0 7.9-6.2 7.9-7.6 0-.7.9-1.4 2-1.7 1.1-.3 2-1.1 2-1.9 0-.7 1-1.8 2.3-2.3 1.6-.7 2.3-2 2.5-4.6.2-2.7.9-3.8 2.3-4.2 1-.3 1.9-1.2 1.9-2s.9-1.7 2-2c1.5-.4 2-1.4 2-4.1 0-2.6.5-3.9 1.8-4.3 2.3-.9 3.2-2.3 3.2-5.3 0-1.4.9-3.1 2-3.8 1.6-1 2-2.3 2-6.6 0-4.6.3-5.6 2-6.1 1.8-.6 2-1.5 2-8.6 0-6.2.3-8.1 1.5-8.5 1.3-.5 1.5-4.1 1.5-23.4 0-19.3-.2-22.9-1.5-23.4-1.2-.4-1.5-2.3-1.5-8.5 0-7.1-.2-8-2-8.6-1.7-.5-2-1.5-2-6.1 0-4.3-.4-5.6-2-6.6-1.1-.7-2-2.4-2-3.8 0-3-.9-4.4-3.2-5.3-1.3-.4-1.8-1.7-1.8-4.3 0-2.7-.5-3.7-2-4.1-1.1-.3-2-1.2-2-2s-.8-1.7-1.9-2c-1-.2-2.4-1.6-3-2.9-.6-1.3-1.7-2.4-2.6-2.4-1.1 0-1.5-1-1.5-3.6 0-2.7-.5-3.7-2-4.1-1.1-.3-2-1-2-1.7 0-1.4-6.4-7.6-7.9-7.6-.6 0-1.1-.9-1.1-2 0-1.7-.7-2-3.9-2-3.1 0-4.1-.5-4.6-1.9-.3-1.1-1.5-2.3-2.6-2.6-1-.4-1.9-1.3-1.9-2.2 0-.8-.9-1.7-1.9-2-1.1-.3-2.1-1.3-2.4-2.4-.4-1.4-1.4-1.9-4.1-1.9-2.6 0-3.9-.5-4.3-1.8-.9-2.3-2.3-3.2-5.3-3.2-1.4 0-3.1-.9-3.8-2-1-1.6-2.3-2-6.6-2-4.6 0-5.6-.3-6.1-2-.6-1.8-1.5-2-8.6-2-6.2 0-8.1-.3-8.5-1.5C152.9.2 149.3 0 130 0c-19.3 0-22.9.2-23.4 1.5zm43.9 23.7c.8 1.9 1.9 2.3 6.6 2.6 4.7.2 5.8.6 6.2 2.2.4 1.7 1.4 2 6.6 2 4.9 0 6.1.3 6.1 1.6 0 .9.9 1.8 2 2.1 1.1.3 2 .9 2 1.3 0 1.8 3.3 4 6.1 4 2 0 2.9.5 2.9 1.6 0 .9.9 1.8 2 2.1 1 .3 2.2 1.4 2.5 2.4.5 1.4 1.6 1.9 4.6 1.9 2.4 0 3.9.5 3.9 1.2 0 1.6 6.3 7.8 7.9 7.8.6 0 1.1 1.6 1.1 3.9 0 3 .5 4.1 1.9 4.6 1 .3 2.1 1.5 2.4 2.5.3 1.1 1.2 2 2 2 .9 0 1.8.9 2.2 1.9.3 1 1.5 2.1 2.5 2.4 1.5.4 2 1.4 2 4.2 0 2.8.5 3.8 2 4.2 1.7.5 2 1.4 2 6.5s.3 6.1 2 6.5c1.6.4 2 1.5 2.2 6.2.3 4.7.7 5.8 2.6 6.6 2.2 1 2.2 1.2 2.2 20.5s0 19.5-2.2 20.5c-1.9.8-2.3 1.9-2.6 6.6-.2 4.7-.6 5.8-2.2 6.2-1.7.4-2 1.4-2 6.5s-.3 6-2 6.5c-1.5.4-2 1.4-2 4.2 0 2.8-.5 3.8-2 4.2-1 .3-2.2 1.3-2.5 2.3-.3 1-1.5 2-2.5 2.3-1.6.4-2 1.4-2 4.6 0 3.1-.4 4.1-1.6 4.1-.9 0-1.8.9-2.1 2-.3 1.1-1 2-1.6 2-1.4 0-7.7 6.2-7.7 7.6 0 .7-.9 1.4-2 1.7-1.1.3-2 1.2-2 2.1 0 1.2-1 1.6-4.1 1.6-3.2 0-4.2.4-4.6 2-.3 1-1.3 2.2-2.3 2.5-1 .3-2 1.5-2.3 2.5-.4 1.5-1.4 2-4.2 2-2.8 0-3.8.5-4.2 2-.5 1.7-1.4 2-6.5 2s-6.1.3-6.5 2c-.4 1.6-1.5 2-6.2 2.2-4.7.3-5.8.7-6.6 2.6-1 2.2-1.2 2.2-20.5 2.2s-19.5 0-20.5-2.3c-.8-1.8-1.9-2.2-6.6-2.5-4.7-.2-5.8-.6-6.2-2.2-.4-1.7-1.4-2-6.5-2s-6-.3-6.5-2c-.4-1.5-1.4-2-4.2-2-2.8 0-3.8-.5-4.2-2-.3-1-1.4-2.2-2.4-2.5-1-.4-1.9-1.3-1.9-2.2 0-.8-.9-1.7-2-2-1-.3-2.2-1.4-2.5-2.4-.5-1.4-1.6-1.9-4.6-1.9-2.4 0-3.9-.5-3.9-1.3 0-1.5-6.3-7.7-7.9-7.7-.6 0-1.1-1.6-1.1-3.9 0-3-.5-4.1-1.9-4.6-1-.3-2.1-1.5-2.4-2.5-.3-1.1-1.2-2-2.1-2-1.1 0-1.6-.9-1.6-2.9 0-2.8-2.2-6.1-4-6.1-.4 0-1-.9-1.3-2-.3-1.1-1.2-2-2.1-2-1.3 0-1.6-1.2-1.6-6.1 0-5.2-.3-6.2-2-6.6-1.6-.4-2-1.5-2.2-6.2-.3-4.7-.7-5.8-2.5-6.6-2.3-1-2.3-1.2-2.3-20.5s0-19.5 2.3-20.5c1.8-.8 2.2-1.9 2.5-6.6.2-4.7.6-5.8 2.2-6.2 1.7-.4 2-1.4 2-6.5s.3-6 2-6.5c1.1-.3 2-1.2 2-2.1 0-.9.4-1.6.9-1.6 1.9 0 4.1-3.2 4.1-6 0-1.9.6-2.9 2-3.3 1.1-.3 2-1.2 2-2 0-.9.9-1.9 2-2.2 1.6-.5 2-1.5 2-4.6 0-2.4.5-3.9 1.3-3.9 1.5 0 7.7-6.3 7.7-7.9 0-.6 1.6-1.1 3.9-1.1 3 0 4.1-.5 4.6-1.9.3-1 1.5-2.1 2.5-2.4 1.1-.3 2-1.2 2-2.1 0-1.1.9-1.6 2.9-1.6 2.9 0 6.1-2.2 6.1-4.1 0-.5.7-.9 1.6-.9.9 0 1.8-.9 2.1-2 .5-1.7 1.4-2 6.5-2s6.1-.3 6.5-2c.4-1.6 1.5-2 6.2-2.2 4.7-.3 5.8-.7 6.6-2.6 1-2.2 1.2-2.2 20.5-2.2s19.5 0 20.5 2.2z"/><path d="M82 60c-3 .4-7.3 1.6-9.5 2.6l-4 1.9-.3 62.3C68 188 68 189 70 190.7c1.1 1 2 2.3 2 3 0 .7 1 1.8 2.3 2.4 1.2.7 2.8 2 3.5 3.1.7 1 1.8 1.8 2.4 1.8.6 0 1.7.8 2.4 1.8 1 1.4 3.1 1.8 11.2 2 9.9.4 10 .4 13.3-2.6 3.3-2.9 3.4-3.3 3.1-9.4-.5-9.3-1.6-11.1-8-12.2l-5.2-1v-59.1c0-44.6-.3-59.4-1.2-60.3-1.3-1.3-5.1-1.4-13.8-.2zM137 60c-3 .4-7.1 1.6-9 2.7l-3.5 2-.3 66.8c-.1 48.5.1 67.2.9 68.1.8 1 4 1.4 11.3 1.4 10.5 0 12.6-.7 12.6-4.2 0-1.7.2-1.8 3-.3 1.7.9 3 2 3 2.5s1 1.2 2.3 1.6c1.2.4 3.3 1.5 4.6 2.5 3.6 2.8 19.8 2.7 23.4-.1 1.4-1.1 3.1-2 3.7-2 1.6 0 11-6.1 11-7.2 0-.4 1.1-1.8 2.5-3s2.5-3.1 2.5-4.3c0-1.2.9-3 2-4s2-2.8 2-4c0-1.2 1-3.5 2.2-5 2-2.6 2.2-3.8 2.2-21.9.1-16.6-.1-19.5-1.6-21.9-1-1.4-1.8-3.2-1.8-3.8 0-2-6.1-13.9-7.1-13.9-.5 0-1.4-1.1-1.9-2.5s-1.6-2.5-2.4-2.5c-.9 0-2-.8-2.5-1.8s-3.4-3-6.3-4.5c-4.7-2.4-6.4-2.7-15.4-2.7-8.3 0-10.6.3-12.5 1.8-1.3 1-3.8 2.6-5.6 3.4-2.8 1.4-3.2 1.4-3.7.1-.3-.8-.6-10.4-.6-21.4V62.1l-3-1.6c-3.1-1.6-3.6-1.6-12-.5zm40.9 65.1c2.2 2.2 3.1 4 3.1 6.4 0 1.9.5 4.6 1.1 6.2 3 7.8 3.1 14.1.3 25.4-2.4 10-2.9 11.1-6.7 14.5-4 3.6-4 3.7-10.8 3-5.4-.5-7.4-1.1-9.6-3.2l-2.8-2.6v-45.5l3.1-3c3.6-3.6 4.9-4 13.1-4.2 5.6-.1 6.4.2 9.2 3z"/></svg>