<svg xmlns="http://www.w3.org/2000/svg" viewBox="0 0 260 258" width="260" height="258">
	<defs>
		<clipPath clipPathUnits="userSpaceOnUse" id="cp1">
			<path d="M0 0L260 0L260 258L0 258Z" />
		</clipPath>
		<linearGradient id="grd1" gradientUnits="userSpaceOnUse"  x1="224.998" y1="124.477" x2="251.947" y2="124.477">
			<stop offset="0" stop-color="#f79d2a"  />
			<stop offset="1" stop-color="#ffcd2e"  />
		</linearGradient>
		<linearGradient id="grd2" gradientUnits="userSpaceOnUse"  x1="66.846" y1="12.221" x2="81.926" y2="12.221">
			<stop offset="0" stop-color="#f79d2a"  />
			<stop offset="1" stop-color="#ffcd2e"  />
		</linearGradient>
		<linearGradient id="grd3" gradientUnits="userSpaceOnUse"  x1="0" y1="58.74" x2="26.711" y2="58.74">
			<stop offset="0" stop-color="#f79d2a"  />
			<stop offset="1" stop-color="#ffcd2e"  />
		</linearGradient>
		<linearGradient id="grd4" gradientUnits="userSpaceOnUse"  x1="174.676" y1="244.645" x2="201.387" y2="244.645">
			<stop offset="0" stop-color="#f79d2a"  />
			<stop offset="1" stop-color="#ffcd2e"  />
		</linearGradient>
		<linearGradient id="grd5" gradientUnits="userSpaceOnUse"  x1="90.297" y1="108.436" x2="171.835" y2="108.436">
			<stop offset="0" stop-color="#f79d2a"  />
			<stop offset="1" stop-color="#ffcd2e"  />
		</linearGradient>
	</defs>
	<style>
		tspan { white-space:pre }
		.shp0 { fill: #8cc34b } 
		.shp1 { fill: url(#grd1) } 
		.shp2 { fill: url(#grd2) } 
		.shp3 { fill: url(#grd3) } 
		.shp4 { fill: url(#grd4) } 
		.shp5 { fill: url(#grd5) } 
		.shp6 { fill: none;stroke: #515151;stroke-width: 4 } 
		.shp7 { fill: none;stroke: #515151;stroke-linecap:round;stroke-width: 4 } 
		.shp8 { fill: none;stroke: #515151;stroke-linecap:round;stroke-width: 2 } 
		.shp9 { fill: #ffffff } 
		.shp10 { fill: none;stroke: #ffffff;stroke-width: 12 } 
		.shp11 { fill: #ffffff;stroke: #ffffff;stroke-width: 12 } 
		.shp12 { fill: none;stroke: #434347;stroke-width: 4 } 
		.shp13 { fill: none;stroke: #000000;stroke-linecap:round;stroke-width: 8 } 
	</style>
	<g clip-path="url(#cp1)">
		<path class="shp0" d="M154.5 0.4C154.5 6.93 149.2 12.22 142.67 12.22C149.2 12.22 154.5 17.52 154.5 24.05C154.5 17.52 159.79 12.22 166.32 12.22C159.79 12.22 154.5 6.93 154.5 0.4ZM16.95 178.12C16.95 184.66 11.66 189.95 5.13 189.95C11.66 189.95 16.95 195.24 16.95 201.78C16.95 195.24 22.25 189.95 28.78 189.95C22.25 189.95 16.95 184.66 16.95 178.12ZM58.45 62.84C58.45 67.48 54.69 71.23 50.06 71.23C54.69 71.23 58.45 74.99 58.45 79.63C58.45 74.99 62.21 71.23 66.85 71.23C62.21 71.23 58.45 67.48 58.45 62.84ZM124.23 217.77C124.23 222.41 120.47 226.17 115.84 226.17C120.47 226.17 124.23 229.92 124.23 234.56C124.23 229.92 127.99 226.17 132.63 226.17C127.99 226.17 124.23 222.41 124.23 217.77ZM251.95 194.27C251.95 198.91 248.19 202.67 243.55 202.67C248.19 202.67 251.95 206.43 251.95 211.07C251.95 206.43 255.71 202.67 260.34 202.67C255.71 202.67 251.95 198.91 251.95 194.27Z" />
		<path class="shp1" d="M225 124.48C232.44 124.48 238.47 130.51 238.47 137.95C238.47 130.51 244.51 124.48 251.95 124.48C244.51 124.48 238.47 118.44 238.47 111C238.47 118.44 232.44 124.48 225 124.48Z" />
		<path class="shp2" d="M66.85 12.22C71.01 12.22 74.39 15.6 74.39 19.76C74.39 15.6 77.76 12.22 81.93 12.22C77.76 12.22 74.39 8.85 74.39 4.68C74.39 8.85 71.01 12.22 66.85 12.22Z" />
		<path class="shp3" d="M0 58.74C7.37 58.74 13.35 64.72 13.35 72.1C13.35 64.72 19.33 58.74 26.71 58.74C19.33 58.74 13.35 52.76 13.35 45.38C13.35 52.76 7.37 58.74 0 58.74Z" />
		<path class="shp4" d="M174.68 244.64C182.05 244.64 188.03 250.62 188.03 258C188.03 250.62 194.01 244.64 201.39 244.64C194.01 244.64 188.03 238.67 188.03 231.29C188.03 238.67 182.05 244.64 174.68 244.64Z" />
		<path class="shp5" d="M122.82 50.37L122.82 56.31C121.14 53.85 118.32 52.24 115.11 52.24C109.94 52.24 105.76 56.43 105.76 61.59L105.76 73.98C104.04 71.86 101.45 70.47 98.51 70.47C93.34 70.47 89.16 74.66 89.16 79.83L89.16 143.94C87.76 173.05 99.15 175.85 99.15 175.85L163.07 175.85C168.54 168.29 170.84 161.03 171.75 155.34L171.92 155.34L171.92 154.23C172.75 148.02 171.92 143.94 171.92 143.94L171.92 91.3C170.66 90.92 169.36 90.66 167.99 90.66C163.98 90.66 160.41 92.39 157.89 95.13L157.89 61.59C157.89 56.43 153.71 52.24 148.54 52.24C145.73 52.24 143.24 53.51 141.53 55.47L141.53 50.37C141.53 45.21 137.34 41.02 132.18 41.02C127.01 41.02 122.82 45.21 122.82 50.37Z" />
		<path class="shp6" d="M171.92 154.23C172.75 148.02 171.92 143.94 171.92 143.94L171.92 91.3C170.66 90.92 169.36 90.66 167.99 90.66C163.98 90.66 160.41 92.39 157.89 95.13L157.89 61.59C157.89 56.43 153.71 52.24 148.54 52.24C145.73 52.24 143.24 53.51 141.53 55.47L141.53 50.37C141.53 45.2 137.34 41.02 132.18 41.02C127.01 41.02 122.82 45.2 122.82 50.37L122.82 56.31C121.14 53.86 118.32 52.24 115.11 52.24C109.94 52.24 105.76 56.43 105.76 61.59L105.76 73.98C104.04 71.86 101.45 70.47 98.51 70.47C93.34 70.47 89.16 74.66 89.16 79.83L89.16 143.94C87.76 173.05 99.15 175.85 99.15 175.85L163.07 175.85C168.54 168.29 170.84 161.03 171.75 155.34L171.92 155.34L171.92 154.23Z" />
		<path class="shp7" d="M172.18 155.34L172.18 91.3C170.92 90.92 169.62 90.66 168.25 90.66C160.65 90.66 154.49 96.81 154.49 104.41L154.49 128.57" />
		<path class="shp8" d="M125.5 175.85C125.38 174.44 125.32 173 125.32 171.55C125.32 148.72 140.66 130.21 159.6 130.21" />
		<path class="shp7" d="M105.79 71.24L105.79 112.21M123 56.13L123 112.22M141.64 54.46L141.64 112.22" />
		<path class="shp8" d="M148.92 66.97L141.64 66.97M148.92 89.41L141.64 89.41M130.28 60.89L123 60.89M113.06 70.47L105.79 70.47M113.06 94.09L105.79 94.09M96.31 89.41L89.04 89.41M96.31 103.91L89.04 103.91M130.28 86.55L123 86.55" />
		<path class="shp9" d="M135.37 130.85C135.37 130.85 134.79 131.07 133.76 131.46C132.74 131.86 131.34 132.54 129.64 133.31C126.35 134.99 121.99 137.42 118.56 140.6C114.91 143.63 112.38 147.28 110.74 150.04C109.88 151.41 109.55 152.64 109.14 153.46C108.79 154.29 108.59 154.77 108.59 154.77L113.15 155.48C113.15 155.48 113.33 155.06 113.65 154.31C114.02 153.57 114.29 152.45 115.08 151.23C116.55 148.78 118.77 145.54 122.02 142.85C125.05 140.03 128.98 137.84 131.96 136.31C133.51 135.62 134.78 135 135.71 134.63C136.65 134.28 137.19 134.07 137.19 134.07L135.37 130.85ZM149.04 127.02L149.76 130.55C149.76 130.55 149.3 130.63 148.61 130.76C147.93 130.9 147.01 131.11 146.09 131.31C144.28 131.77 142.48 132.26 142.48 132.26L141.12 128.88C141.12 128.88 143.08 128.36 145.04 127.85C146.04 127.64 147.03 127.42 147.78 127.26C148.54 127.12 149.04 127.02 149.04 127.02ZM107.28 159.38L111.96 159.67C111.96 159.67 111.87 160.02 111.75 160.55C111.63 161.08 111.43 161.79 111.44 162.51C111.37 163.94 111.29 165.37 111.29 165.37L106.55 165.56C106.55 165.56 106.64 164.02 106.72 162.47C106.71 161.7 106.92 160.92 107.06 160.35C107.19 159.76 107.28 159.38 107.28 159.38ZM105.41 127.24C105.41 127.24 105.82 127.36 106.53 127.55C107.26 127.73 108.32 127.88 109.57 128.11C112.11 128.42 115.6 128.67 119.05 127.95C122.53 127.45 125.82 125.98 128.17 124.74C129.37 124.16 130.22 123.41 130.89 123.02C131.53 122.57 131.89 122.32 131.89 122.32L130.1 119.71C130.1 119.71 129.77 119.93 129.19 120.33C128.59 120.68 127.82 121.37 126.76 121.88C124.66 122.97 121.75 124.29 118.66 124.73C115.59 125.38 112.45 125.14 110.15 124.88C109.01 124.66 108.04 124.52 107.38 124.36C106.72 124.18 106.35 124.08 106.35 124.08L105.41 127.24ZM96.63 123.71L98.28 120.83C98.28 120.83 98.55 120.98 98.95 121.21C99.37 121.42 99.92 121.7 100.48 121.97C101.62 122.47 102.76 122.95 102.76 122.95L101.51 126.01C101.51 126.01 100.27 125.5 99.03 124.95C98.43 124.65 97.82 124.35 97.37 124.12C96.93 123.87 96.63 123.71 96.63 123.71ZM135.14 119.6L133.04 117.23C133.04 117.23 133.28 117.02 133.64 116.69C134 116.36 134.5 115.95 134.9 115.42C135.75 114.42 136.59 113.42 136.59 113.42L138.99 115.47C138.99 115.47 138.08 116.54 137.16 117.62C136.73 118.18 136.19 118.64 135.79 119C135.4 119.36 135.14 119.6 135.14 119.6ZM136.48 123.71C136.48 123.71 130.09 126.86 123.64 129.87C117.19 132.92 110.66 135.68 110.66 135.68L111.82 138.44C111.82 138.44 118.44 135.65 124.91 132.59C131.39 129.56 137.8 126.4 137.8 126.4L136.48 123.71ZM145.43 119.24L146.78 121.92L141.66 124.48L140.33 121.79L145.43 119.24ZM106.74 137.24L107.83 140.04C107.83 140.04 106.47 140.54 105.11 141.05C103.71 141.51 102.32 141.97 102.32 141.97L101.48 139.09C101.48 139.09 102.79 138.66 104.11 138.23C105.42 137.73 106.74 137.24 106.74 137.24ZM75.46 162.1C74.59 166.72 73.03 176.03 71.89 185.6C74.46 183.03 78.79 179.43 83.14 178.83C89.97 177.89 92.03 181.96 91 188.27C90.14 193.53 86.54 205.88 90.84 204.97C93.31 204.48 96.8 199.41 98.33 194.46C98.73 193.29 102.29 195.02 101.93 195.86C99.44 202.53 94.92 211.06 86.24 212.88C78.4 214.52 76.53 210.11 76.51 205.37C76.51 201.33 77.97 192.99 78.24 191.53C78.66 189.41 78.29 187.88 76.15 188.41C74.7 188.77 72.55 190.41 70.86 192.46C69.84 200.59 68.94 207.83 68.3 214.09C68.14 215.85 54.86 218.7 55.31 215.08C57.4 198.11 60.82 174.71 62.86 161.93C65.32 159.7 75.28 159.67 75.46 162.1Z" />
		<path class="shp10" d="M75.46 162.1C74.59 166.72 73.03 176.03 71.89 185.6C74.46 183.03 78.79 179.43 83.14 178.83C89.97 177.89 92.03 181.96 91 188.27C90.14 193.53 86.54 205.88 90.84 204.97C93.31 204.48 96.8 199.41 98.33 194.46C98.73 193.29 102.29 195.02 101.93 195.86C99.44 202.53 94.92 211.06 86.24 212.88C78.4 214.52 76.53 210.11 76.51 205.37C76.51 201.33 77.97 192.99 78.24 191.53C78.66 189.41 78.29 187.88 76.15 188.41C74.7 188.77 72.55 190.41 70.86 192.46C69.84 200.59 68.94 207.83 68.3 214.09C68.14 215.85 54.86 218.7 55.31 215.08C57.4 198.11 60.82 174.71 62.86 161.93C65.32 159.7 75.28 159.67 75.46 162.1Z" />
		<path fill-rule="evenodd" class="shp11" d="M128.91 186.77C127.03 192.64 120.26 196.34 111.31 196.23C112.26 200.29 115.69 201.64 121.29 200.94C125.72 200.41 132.37 197.6 135.35 189.36C135.75 188.2 139.31 189.92 139.01 190.68C134.47 202.53 127.56 207.44 118.08 208.66C104.64 210.43 98.72 203.57 98.36 195.24C97.89 184.32 105.58 175.82 116.85 174.43C126.96 173.2 131.32 180.19 128.91 186.77ZM111.01 191.21C115.54 190.74 117.84 187.34 118.19 184.76C118.45 183.15 117.96 181.95 116.78 181.95C113.93 181.95 111.48 186 111.01 191.21Z" />
		<path fill-rule="evenodd" class="shp11" d="M165.46 161.65C164.83 172.02 158.21 180.76 146.84 185.49C146.14 193.1 148.21 197.16 153.5 196.59C157.08 196.18 162.56 194 165.76 185.1C166.1 184.1 169.5 185.85 169.28 186.51C165.88 195.76 161.27 203.59 149.56 204.09C137.45 204.65 134.6 194.29 135.66 178.96C136.46 167.54 140.04 156.22 146.77 151.1C154.65 145.11 166.25 148.98 165.46 161.65ZM149.77 165.4C148.95 169.22 147.79 174.6 147.3 178.47C150.79 176.25 153.62 170.4 154.74 165.9C155.88 161 155.79 156.27 153.85 156.53C152.22 156.76 150.85 160.66 149.77 165.4Z" />
		<path fill-rule="evenodd" class="shp11" d="M195.73 157.49C195.1 167.86 188.47 176.6 177.1 181.33C176.41 188.93 178.47 193 183.77 192.43C187.35 192.02 192.82 189.84 196.03 180.94C196.37 179.94 199.77 181.69 199.54 182.35C196.15 191.6 191.53 199.43 179.82 199.93C167.72 200.49 164.87 190.12 165.92 174.8C166.73 163.38 170.31 152.05 177.04 146.94C184.91 140.95 196.52 144.81 195.73 157.49ZM180.03 161.23C179.22 165.06 178.06 170.44 177.56 174.3C181.05 172.08 183.89 166.24 185 161.73C186.15 156.83 186.05 152.1 184.11 152.37C182.48 152.59 181.12 156.5 180.03 161.23Z" />
		<path fill-rule="evenodd" class="shp11" d="M227.84 184.55C231.55 184.51 235.54 181.35 237.48 175.31C237.87 174.15 241.42 175.8 241.08 176.72C237.07 187.86 230.12 189.06 224.52 189.19C221.08 192.91 216.41 195.14 211.21 195.85C202.05 197.11 194.67 193.46 195.94 180.32C197.03 168.7 205.12 161.97 214.68 160.74C229.21 158.9 233.31 172.01 227.84 184.55ZM208.79 178.31C208.18 183.06 207.51 189.08 212.01 188.46C213.02 188.33 213.96 187.72 214.63 186.84C213.07 184.68 214.33 181.19 216.95 180.75C218.18 174.09 217.83 167.58 213.96 168.19C211.18 168.65 209.53 172.75 208.79 178.31Z" />
		<path class="shp12" d="M237.48 175.31C235.54 181.36 231.55 184.51 227.84 184.55C233.31 172.01 229.21 158.9 214.68 160.74C205.12 161.97 197.03 168.7 195.94 180.32C195.91 180.66 195.9 180.98 195.88 181.31C192.66 189.89 187.3 192.02 183.77 192.43C178.47 193 176.41 188.93 177.1 181.33C188.47 176.6 195.1 167.86 195.73 157.49C196.52 144.81 184.91 140.95 177.04 146.94C170.31 152.05 166.73 163.38 165.92 174.8C165.67 178.5 165.65 181.9 165.93 184.94C165.86 184.99 165.79 185.02 165.76 185.1C162.56 194 157.08 196.18 153.5 196.59C148.21 197.16 146.14 193.1 146.84 185.49C158.21 180.76 164.83 172.02 165.46 161.65C166.25 148.98 154.65 145.12 146.77 151.1C140.04 156.22 136.46 167.54 135.66 178.96C135.4 182.64 135.39 186.03 135.66 189.05C135.51 189.11 135.4 189.21 135.35 189.36C132.37 197.6 125.72 200.41 121.29 200.94C115.69 201.64 112.26 200.29 111.31 196.23C120.26 196.34 127.03 192.64 128.91 186.77C131.33 180.19 126.96 173.2 116.85 174.43C105.86 175.79 98.3 183.9 98.37 194.42C98.36 194.44 98.34 194.44 98.33 194.46C96.8 199.41 93.31 204.48 90.85 204.97C86.54 205.88 90.14 193.53 91 188.27C92.03 181.96 89.97 177.89 83.14 178.83C78.79 179.43 74.46 183.03 71.89 185.6C73.03 176.03 74.59 166.72 75.46 162.1C75.28 159.67 65.32 159.7 62.86 161.93C60.82 174.71 57.4 198.11 55.31 215.08C54.86 218.7 68.15 215.85 68.3 214.09C68.94 207.83 69.84 200.59 70.86 192.46C72.55 190.41 74.7 188.77 76.15 188.41C78.29 187.88 78.66 189.41 78.24 191.53C77.97 192.99 76.51 201.33 76.51 205.37C76.53 210.11 78.4 214.52 86.24 212.88C92.77 211.51 96.95 206.34 99.67 201.03C102.1 206.43 107.96 209.99 118.08 208.66C126.18 207.62 132.4 203.87 136.87 195.41C138.74 201.14 142.62 204.41 149.56 204.09C159.08 203.68 163.91 198.43 167.21 191.5C169.11 197.08 172.99 200.25 179.82 199.93C188.6 199.55 193.4 195.06 196.67 188.93C198.78 195.05 204.51 196.77 211.21 195.85C216.41 195.14 221.08 192.91 224.52 189.2C230.12 189.06 237.07 187.87 241.08 176.72C241.42 175.8 237.87 174.15 237.48 175.31ZM116.78 181.95C117.96 181.95 118.44 183.15 118.19 184.76C117.83 187.35 115.54 190.74 111.01 191.21C111.49 186 113.93 181.95 116.78 181.95ZM149.76 165.4C150.85 160.66 152.22 156.76 153.85 156.53C155.79 156.27 155.88 161 154.74 165.9C153.62 170.4 150.79 176.25 147.29 178.47C147.79 174.61 148.95 169.22 149.76 165.4ZM180.03 161.23C181.12 156.5 182.48 152.59 184.11 152.37C186.05 152.1 186.15 156.83 185 161.73C183.89 166.24 181.05 172.08 177.56 174.3C178.06 170.44 179.22 165.06 180.03 161.23ZM216.96 180.75C214.33 181.19 213.07 184.68 214.63 186.84C213.96 187.72 213.02 188.33 212.01 188.46C207.51 189.08 208.18 183.06 208.79 178.31C209.53 172.75 211.18 168.65 213.96 168.19C217.83 167.58 218.18 174.09 216.96 180.75Z" />
		<path class="shp13" d="M179.84 36.82C179.84 36.82 202.51 47.11 194.51 80.8M201.47 32.51C201.47 32.51 217.73 39.9 211.99 64.08M55.08 141.45C55.08 141.45 32.89 130.17 42.37 96.86M33.29 144.8C33.29 144.8 17.37 136.7 24.17 112.8" />
	</g>
</svg>