<svg xmlns="http://www.w3.org/2000/svg" viewBox="0 0 272 253" width="272" height="253">
	<defs>
		<clipPath clipPathUnits="userSpaceOnUse" id="cp1">
			<path d="M0 0L272 0L272 253L0 253Z" />
		</clipPath>
		<linearGradient id="grd1" gradientUnits="userSpaceOnUse"  x1="0.482" y1="133.516" x2="27.432" y2="133.516">
			<stop offset="0" stop-color="#f79d2a"  />
			<stop offset="1" stop-color="#ffcd2e"  />
		</linearGradient>
		<linearGradient id="grd2" gradientUnits="userSpaceOnUse"  x1="184.119" y1="151.951" x2="201.436" y2="151.951">
			<stop offset="0" stop-color="#f79d2a"  />
			<stop offset="1" stop-color="#ffcd2e"  />
		</linearGradient>
		<linearGradient id="grd3" gradientUnits="userSpaceOnUse"  x1="247.766" y1="218.01" x2="272.082" y2="218.01">
			<stop offset="0" stop-color="#f79d2a"  />
			<stop offset="1" stop-color="#ffcd2e"  />
		</linearGradient>
		<linearGradient id="grd4" gradientUnits="userSpaceOnUse"  x1="203.055" y1="37.893" x2="218.135" y2="37.893">
			<stop offset="0" stop-color="#f79d2a"  />
			<stop offset="1" stop-color="#ffcd2e"  />
		</linearGradient>
		<linearGradient id="grd5" gradientUnits="userSpaceOnUse"  x1="25.875" y1="215.262" x2="41.492" y2="215.262">
			<stop offset="0" stop-color="#f79d2a"  />
			<stop offset="1" stop-color="#ffcd2e"  />
		</linearGradient>
		<linearGradient id="grd6" gradientUnits="userSpaceOnUse"  x1="125.633" y1="244.602" x2="142.43" y2="244.602">
			<stop offset="0" stop-color="#f79d2a"  />
			<stop offset="1" stop-color="#ffcd2e"  />
		</linearGradient>
		<linearGradient id="grd7" gradientUnits="userSpaceOnUse"  x1="0" y1="31.693" x2="15.514" y2="31.693">
			<stop offset="0" stop-color="#f79d2a"  />
			<stop offset="1" stop-color="#ffcd2e"  />
		</linearGradient>
		<linearGradient id="grd8" gradientUnits="userSpaceOnUse"  x1="117.516" y1="173.514" x2="149.638" y2="173.514">
			<stop offset="0" stop-color="#76767d"  />
			<stop offset="1" stop-color="#a4a8a8"  />
		</linearGradient>
		<linearGradient id="grd9" gradientUnits="userSpaceOnUse"  x1="117.368" y1="186.01" x2="149.442" y2="186.01">
			<stop offset="0" stop-color="#76767d"  />
			<stop offset="1" stop-color="#a4a8a8"  />
		</linearGradient>
		<linearGradient id="grd10" gradientUnits="userSpaceOnUse"  x1="95.26" y1="117.107" x2="171.773" y2="117.107">
			<stop offset="0" stop-color="#f79d2a"  />
			<stop offset="1" stop-color="#ffcd2e"  />
		</linearGradient>
		<linearGradient id="grd11" gradientUnits="userSpaceOnUse"  x1="204.565" y1="107.431" x2="218.965" y2="115.803">
			<stop offset="0" stop-color="#76767d"  />
			<stop offset="1" stop-color="#a4a8a8"  />
		</linearGradient>
		<linearGradient id="grd12" gradientUnits="userSpaceOnUse"  x1="201.268" y1="113.107" x2="215.753" y2="121.528">
			<stop offset="0" stop-color="#76767d"  />
			<stop offset="1" stop-color="#a4a8a8"  />
		</linearGradient>
		<linearGradient id="grd13" gradientUnits="userSpaceOnUse"  x1="210.889" y1="77.884" x2="241.811" y2="95.861">
			<stop offset="0" stop-color="#f79d2a"  />
			<stop offset="1" stop-color="#ffcd2e"  />
		</linearGradient>
		<linearGradient id="grd14" gradientUnits="userSpaceOnUse"  x1="65.454" y1="191.58" x2="68.819" y2="180.066">
			<stop offset="0" stop-color="#76767d"  />
			<stop offset="1" stop-color="#a4a8a8"  />
		</linearGradient>
		<linearGradient id="grd15" gradientUnits="userSpaceOnUse"  x1="69.883" y1="192.839" x2="73.246" y2="181.332">
			<stop offset="0" stop-color="#76767d"  />
			<stop offset="1" stop-color="#a4a8a8"  />
		</linearGradient>
		<linearGradient id="grd16" gradientUnits="userSpaceOnUse"  x1="43.913" y1="192.959" x2="51.275" y2="167.769">
			<stop offset="0" stop-color="#f79d2a"  />
			<stop offset="1" stop-color="#ffcd2e"  />
		</linearGradient>
		<linearGradient id="grd17" gradientUnits="userSpaceOnUse"  x1="133.52" y1="35.461" x2="133.52" y2="58.141">
			<stop offset="0" stop-color="#f79d2a"  />
			<stop offset="1" stop-color="#ffcd2e"  />
		</linearGradient>
		<linearGradient id="grd18" gradientUnits="userSpaceOnUse"  x1="170.879" y1="50.397" x2="158.34" y2="68.374">
			<stop offset="0" stop-color="#f79d2a"  />
			<stop offset="1" stop-color="#ffcd2e"  />
		</linearGradient>
		<linearGradient id="grd19" gradientUnits="userSpaceOnUse"  x1="193.764" y1="74.063" x2="174.344" y2="84.249">
			<stop offset="0" stop-color="#f79d2a"  />
			<stop offset="1" stop-color="#ffcd2e"  />
		</linearGradient>
		<linearGradient id="grd20" gradientUnits="userSpaceOnUse"  x1="95.599" y1="50.393" x2="108.139" y2="68.371">
			<stop offset="0" stop-color="#f79d2a"  />
			<stop offset="1" stop-color="#ffcd2e"  />
		</linearGradient>
		<linearGradient id="grd21" gradientUnits="userSpaceOnUse"  x1="72.612" y1="74.063" x2="92.031" y2="84.248">
			<stop offset="0" stop-color="#f79d2a"  />
			<stop offset="1" stop-color="#ffcd2e"  />
		</linearGradient>
		<linearGradient id="grd22" gradientUnits="userSpaceOnUse"  x1="205.394" y1="214.095" x2="257.016" y2="162.495">
			<stop offset="0" stop-color="#9ca5aa"  />
			<stop offset="0.124" stop-color="#9ca5aa"  />
			<stop offset="1" stop-color="#cfd7db"  />
		</linearGradient>
		<linearGradient id="grd23" gradientUnits="userSpaceOnUse"  x1="49.555" y1="38.284" x2="22.541" y2="99.268">
			<stop offset="0" stop-color="#9ca5aa"  />
			<stop offset="0.124" stop-color="#9ca5aa"  />
			<stop offset="1" stop-color="#cfd7db"  />
		</linearGradient>
	</defs>
	<style>
		tspan { white-space:pre }
		.shp0 { fill: #8cc34b } 
		.shp1 { fill: url(#grd1) } 
		.shp2 { fill: url(#grd2) } 
		.shp3 { fill: url(#grd3) } 
		.shp4 { fill: url(#grd4) } 
		.shp5 { fill: url(#grd5) } 
		.shp6 { fill: url(#grd6) } 
		.shp7 { fill: url(#grd7) } 
		.shp8 { fill: url(#grd8) } 
		.shp9 { fill: none;stroke: #444444;stroke-width: 4 } 
		.shp10 { fill: url(#grd9) } 
		.shp11 { fill: url(#grd10) } 
		.shp12 { fill: none;stroke: #515151;stroke-width: 4 } 
		.shp13 { fill: #ffffff } 
		.shp14 { fill: none;stroke: #ffffff;stroke-linecap:round;stroke-width: 6 } 
		.shp15 { opacity: 0.698;fill: url(#grd11) } 
		.shp16 { fill: none;stroke: #444444;stroke-width: 2 } 
		.shp17 { opacity: 0.698;fill: url(#grd12) } 
		.shp18 { opacity: 0.698;fill: url(#grd13) } 
		.shp19 { opacity: 0.698;fill: #ffffff } 
		.shp20 { opacity: 0.698;fill: url(#grd14) } 
		.shp21 { opacity: 0.698;fill: url(#grd15) } 
		.shp22 { opacity: 0.698;fill: url(#grd16) } 
		.shp23 { opacity: 0.502;fill: url(#grd17) } 
		.shp24 { opacity: 0.502;fill: url(#grd18) } 
		.shp25 { opacity: 0.502;fill: url(#grd19) } 
		.shp26 { opacity: 0.502;fill: url(#grd20) } 
		.shp27 { opacity: 0.502;fill: url(#grd21) } 
		.shp28 { fill: #e8e8e8;stroke: #444444;stroke-width: 4 } 
		.shp29 { fill: none;stroke: #000000;stroke-linecap:round;stroke-width: 6 } 
		.shp30 { fill: #434347 } 
		.shp31 { fill: url(#grd22) } 
		.shp32 { fill: none;stroke: #565656;stroke-width: 4 } 
		.shp33 { fill: #ec4643 } 
		.shp34 { fill: #ffcd2e } 
		.shp35 { fill: #c2e046 } 
		.shp36 { fill: url(#grd23) } 
	</style>
	<g clip-path="url(#cp1)">
		<path class="shp0" d="M257.36 110.08C257.36 117.04 251.71 122.69 244.75 122.69C251.71 122.69 257.36 128.32 257.36 135.28C257.36 128.32 262.99 122.69 269.95 122.69C262.99 122.69 257.36 117.04 257.36 110.08ZM80.41 135.43C80.41 139.77 76.89 143.29 72.56 143.29C76.89 143.29 80.41 146.8 80.41 151.14C80.41 146.8 83.92 143.29 88.25 143.29C83.92 143.29 80.41 139.77 80.41 135.43ZM167.78 0.35C167.78 6.89 162.48 12.18 155.95 12.18C162.48 12.18 167.78 17.47 167.78 24C167.78 17.47 173.07 12.18 179.6 12.18C173.07 12.18 167.78 6.89 167.78 0.35ZM95 209.33C95 213.97 91.24 217.73 86.6 217.73C91.24 217.73 95 221.48 95 226.12C95 221.48 98.76 217.73 103.39 217.73C98.76 217.73 95 213.97 95 209.33Z" />
		<path class="shp1" d="M0.48 133.52C7.92 133.52 13.96 139.55 13.96 146.99C13.96 139.55 19.99 133.52 27.43 133.52C19.99 133.52 13.96 127.48 13.96 120.04C13.96 127.48 7.92 133.52 0.48 133.52Z" />
		<path class="shp2" d="M184.12 151.95C188.9 151.95 192.78 155.83 192.78 160.61C192.78 155.83 196.65 151.95 201.44 151.95C196.65 151.95 192.78 148.07 192.78 143.29C192.78 148.07 188.9 151.95 184.12 151.95Z" />
		<path class="shp3" d="M247.77 218.01C254.48 218.01 259.93 223.45 259.93 230.17C259.93 223.45 265.37 218.01 272.08 218.01C265.37 218.01 259.93 212.57 259.93 205.85C259.93 212.57 254.48 218.01 247.77 218.01Z" />
		<path class="shp4" d="M203.05 37.89C207.22 37.89 210.59 41.27 210.59 45.43C210.59 41.27 213.97 37.89 218.13 37.89C213.97 37.89 210.59 34.52 210.59 30.35C210.59 34.52 207.22 37.89 203.05 37.89Z" />
		<path class="shp5" d="M25.88 215.26C30.19 215.26 33.68 218.76 33.68 223.07C33.68 218.76 37.18 215.26 41.49 215.26C37.18 215.26 33.68 211.77 33.68 207.45C33.68 211.77 30.19 215.26 25.88 215.26Z" />
		<path class="shp6" d="M125.63 244.6C130.27 244.6 134.03 248.36 134.03 253C134.03 248.36 137.79 244.6 142.43 244.6C137.79 244.6 134.03 240.84 134.03 236.2C134.03 240.84 130.27 244.6 125.63 244.6Z" />
		<path class="shp7" d="M0 31.69C4.28 31.69 7.76 35.17 7.76 39.45C7.76 35.17 11.23 31.69 15.51 31.69C11.23 31.69 7.76 28.22 7.76 23.94C7.76 28.22 4.28 31.69 0 31.69Z" />
		<path class="shp8" d="M120.03 165.89C118.46 165.89 117.19 168.77 117.19 170.34C117.19 171.9 118.46 174.78 120.03 174.78L129.06 174.78L119.16 176.63C117.68 177.11 116.86 178.02 117.34 179.51C117.73 180.71 118.84 181.14 120.04 181.14C120.33 181.14 120.63 180.92 120.92 180.83L147.86 172C149.18 171.57 150 169.95 149.78 168.57C149.56 167.2 148.37 165.89 146.98 165.89L120.03 165.89Z" />
		<path class="shp9" d="M146.98 165.89L120.03 165.89C118.46 165.89 117.19 168.77 117.19 170.34C117.19 171.9 118.46 174.78 120.03 174.78L129.06 174.78L119.16 176.63C117.68 177.11 116.86 178.02 117.34 179.51C117.73 180.71 118.84 181.14 120.04 181.14C120.33 181.14 120.62 180.92 120.92 180.83L147.86 172C149.18 171.57 150 169.95 149.78 168.57C149.56 167.19 148.37 165.89 146.98 165.89Z" />
		<path class="shp10" d="M146.07 175.1L119.15 183.68C117.82 184.12 117.01 186.02 117.23 187.4C117.44 188.77 118.63 190.35 120.03 190.35L122.47 190.35L126.76 197.03L140.11 197.03L144.46 190.35L146.94 190.35C148.51 190.35 149.78 189.69 149.78 188.13C149.78 186.56 148.51 185.91 146.94 185.91L137.94 185.91L147.82 181.44C149.31 180.96 150.13 178.73 149.64 177.24C149.23 175.99 148.04 174.99 146.79 174.99C146.55 174.99 146.31 175.03 146.07 175.1Z" />
		<path class="shp9" d="M146.95 185.91L137.94 185.91L147.82 181.44C149.31 180.96 150.13 178.73 149.64 177.24C149.16 175.75 147.56 174.62 146.07 175.1L119.15 183.68C117.82 184.12 117.01 186.02 117.23 187.4C117.44 188.77 118.63 190.36 120.03 190.36L122.47 190.36L126.76 197.03L140.11 197.03L144.46 190.36L146.95 190.36C148.51 190.36 149.78 189.69 149.78 188.13C149.78 186.56 148.51 185.91 146.95 185.91Z" />
		<path class="shp11" d="M95.26 109.48C95.26 119.62 100.42 128.38 105.65 136.24C117.21 153.6 110.64 163 117.31 163L133.49 163L149.75 163C156.42 163 149.84 153.6 161.4 136.24C166.62 128.38 171.78 119.9 171.78 109.75C171.78 88.63 154.62 71.24 133.51 71.22C112.4 71.24 95.26 88.36 95.26 109.48Z" />
		<path class="shp12" d="M133.51 71.22C112.4 71.24 95.26 88.36 95.26 109.47C95.26 119.62 100.42 128.38 105.65 136.24C117.21 153.59 110.64 163 117.31 163L133.49 163L149.75 163C156.42 163 149.84 153.59 161.4 136.24C166.63 128.38 171.78 119.9 171.78 109.75C171.78 88.63 154.62 71.24 133.51 71.22Z" />
		<path class="shp13" d="M151 121.23C150.91 121.43 142.74 141.8 143.39 159.97C143.43 161.09 142.79 162.03 141.99 162.09C141.96 162.1 141.93 162.1 141.91 162.1C141.13 162.1 140.47 161.25 140.44 160.17C139.89 144.91 144.95 128.81 147.29 122.26L141.93 122.26C141.23 122.26 140.63 121.58 140.5 120.66L138.45 126.84C138.16 127.68 137.49 128.16 136.84 127.99C136.17 127.83 135.67 127.06 135.63 126.13L135.47 122.57L134.03 127.54C133.77 128.45 133.08 128.98 132.38 128.78C131.68 128.6 131.18 127.77 131.18 126.8L131.18 123.03L129.85 127.17C129.57 128.03 128.88 128.53 128.22 128.34C127.55 128.16 127.05 127.36 127.03 126.43L126.87 120.15L126.26 121.38C125.98 121.93 125.53 122.27 125.04 122.27L119.89 122.27C125.52 136.41 126.4 158.95 126.44 159.97C126.48 161.09 125.85 162.04 125.04 162.1C124.23 162.21 123.53 161.3 123.49 160.18C123.48 159.93 122.46 134.09 116.05 121.4C115.73 120.78 115.7 119.98 115.95 119.31C116.21 118.65 116.71 118.23 117.26 118.23L124.25 118.23L126.96 112.75C127.31 112.02 127.97 111.7 128.59 111.94C129.2 112.18 129.63 112.93 129.65 113.81L129.75 117.47L131.31 112.62C131.59 111.76 132.28 111.27 132.96 111.46C133.65 111.66 134.13 112.48 134.13 113.44L134.13 116.23L135.15 112.7C135.41 111.82 136.09 111.3 136.76 111.45C137.44 111.6 137.96 112.37 138 113.32L138.2 117.8L139.92 112.61C140.19 111.79 140.83 111.33 141.48 111.45C142.13 111.58 142.64 112.28 142.72 113.18L143.23 118.24L149.72 118.24C150.24 118.24 150.72 118.62 150.99 119.24C151.25 119.84 151.25 120.6 151 121.23Z" />
		<path class="shp14" d="M138.55 80.76C119.91 80.76 104.8 96.01 104.8 114.83" />
		<path class="shp15" d="M219.86 111.7L207.7 104.63C206.99 104.22 205.67 105.19 205.26 105.9C204.85 106.6 204.66 108.23 205.37 108.65L209.44 111.02L204.49 109.25C203.7 109.08 203.09 109.28 202.92 110.08C202.78 110.72 203.17 111.2 203.71 111.52C203.84 111.59 204.03 111.57 204.18 111.61L218.66 114.69C219.37 114.84 220.16 114.33 220.42 113.65C220.69 112.97 220.49 112.07 219.86 111.7Z" />
		<path class="shp16" d="M219.86 111.7L207.7 104.63C206.99 104.22 205.67 105.19 205.26 105.9C204.85 106.6 204.66 108.24 205.37 108.65L209.44 111.02L204.49 109.25C203.7 109.08 203.09 109.28 202.92 110.08C202.78 110.72 203.17 111.2 203.71 111.52C203.84 111.59 204.03 111.57 204.18 111.61L218.66 114.69C219.37 114.84 220.16 114.33 220.42 113.65C220.69 112.97 220.49 112.07 219.86 111.7Z" />
		<path class="shp17" d="M214.6 120.72L210.54 118.36L216.17 118.94C216.96 119.11 217.92 118.32 218.09 117.52C218.26 116.72 217.84 115.79 217.04 115.62L202.64 112.43C201.93 112.28 201.06 112.92 200.8 113.6C200.53 114.28 200.65 115.31 201.29 115.67L202.39 116.31L202.57 120.45L208.6 123.95L212.31 122.08L213.43 122.73C214.14 123.14 214.88 123.18 215.29 122.47C215.7 121.77 215.3 121.14 214.6 120.72Z" />
		<path class="shp16" d="M214.6 120.72L210.54 118.36L216.17 118.94C216.96 119.11 217.92 118.32 218.09 117.52C218.26 116.72 217.84 115.79 217.04 115.62L202.64 112.43C201.93 112.28 201.06 112.92 200.8 113.6C200.53 114.28 200.65 115.31 201.29 115.67L202.39 116.31L202.57 120.45L208.6 123.95L212.31 122.08L213.43 122.73C214.14 123.14 214.88 123.18 215.29 122.47C215.7 121.77 215.31 121.14 214.6 120.72Z" />
		<path class="shp18" d="M238.62 65.45C229.09 59.92 216.87 63.15 211.33 72.68C208.66 77.26 208.7 82.57 208.99 87.48C209.65 98.34 204.22 100.87 207.24 102.62L214.54 106.86L221.87 111.12C224.88 112.87 224.38 106.9 234.15 102.11C238.57 99.93 243.12 97.46 245.78 92.88C251.32 83.35 248.14 71 238.62 65.45Z" />
		<path class="shp12" d="M238.62 65.45C229.09 59.92 216.87 63.15 211.33 72.68C208.66 77.26 208.7 82.57 208.99 87.48C209.66 98.34 204.23 100.87 207.24 102.62L214.54 106.86L221.87 111.12C224.88 112.88 224.38 106.91 234.15 102.11C238.57 99.93 243.12 97.46 245.78 92.88C251.32 83.35 248.14 71 238.62 65.45Z" />
		<path class="shp19" d="M233.39 92.6C233.3 92.67 224.27 99.72 219.79 108.09C219.52 108.61 218.99 108.86 218.61 108.68C218.59 108.67 218.58 108.67 218.57 108.66C218.22 108.46 218.15 107.9 218.41 107.41C222.17 100.38 228.68 94.44 231.45 92.1L229.03 90.69C228.72 90.51 228.62 90.04 228.8 89.59L226.26 91.84C225.91 92.15 225.48 92.19 225.23 91.94C224.97 91.69 224.95 91.22 225.17 90.79L226.03 89.14L224.08 91C223.72 91.34 223.27 91.4 223.01 91.13C222.74 90.86 222.74 90.36 222.99 89.92L223.98 88.22L222.29 89.74C221.94 90.05 221.5 90.1 221.25 89.84C220.99 89.58 220.98 89.09 221.21 88.66L222.79 85.79L222.19 86.18C221.92 86.36 221.62 86.39 221.4 86.26L219.08 84.91C217.91 92.77 212.4 103.18 212.15 103.65C211.87 104.16 211.34 104.42 210.96 104.23C210.56 104.08 210.49 103.48 210.76 102.97C210.83 102.85 217.14 90.92 217.58 83.52C217.6 83.15 217.79 82.78 218.08 82.55C218.37 82.31 218.71 82.26 218.96 82.4L222.11 84.24L224.77 82.47C225.12 82.24 225.5 82.26 225.72 82.53C225.93 82.8 225.93 83.26 225.71 83.66L224.79 85.34L226.77 83.56C227.12 83.24 227.56 83.2 227.82 83.46C228.08 83.73 228.08 84.23 227.83 84.66L227.09 85.92L228.48 84.6C228.83 84.27 229.27 84.22 229.53 84.46C229.8 84.7 229.83 85.19 229.6 85.63L228.52 87.7L230.65 85.81C230.99 85.51 231.4 85.47 231.67 85.7C231.92 85.92 231.97 86.38 231.77 86.8L230.67 89.22L233.6 90.92C233.84 91.06 233.95 91.35 233.91 91.7C233.87 92.04 233.67 92.39 233.39 92.6Z" />
		<path class="shp14" d="M238.39 71.08C229.98 66.19 219.16 69.11 214.23 77.6" />
		<path class="shp20" d="M65.81 180.23L63.01 189.8C62.85 190.36 63.74 191.1 64.3 191.26C64.86 191.43 66.01 191.28 66.17 190.72L67.11 187.51L66.74 191.22C66.75 191.8 66.99 192.18 67.57 192.16C68.04 192.15 68.3 191.8 68.43 191.38C68.46 191.27 68.41 191.14 68.41 191.03L68.07 180.55C68.06 180.04 67.56 179.58 67.05 179.51C66.54 179.45 65.95 179.73 65.81 180.23Z" />
		<path class="shp16" d="M65.81 180.23L63.01 189.8C62.85 190.35 63.74 191.1 64.3 191.26C64.85 191.43 66.01 191.27 66.17 190.72L67.11 187.51L66.74 191.22C66.75 191.8 66.99 192.18 67.57 192.16C68.04 192.15 68.3 191.8 68.43 191.37C68.46 191.27 68.41 191.14 68.41 191.03L68.07 180.55C68.06 180.03 67.56 179.58 67.05 179.51C66.54 179.45 65.95 179.73 65.81 180.23Z" />
		<path class="shp21" d="M72.91 182.32L71.98 185.52L71.42 181.54C71.4 180.96 70.69 180.44 70.12 180.46C69.54 180.48 68.97 180.93 68.99 181.51L69.24 191.96C69.25 192.47 69.85 192.96 70.36 193.02C70.87 193.09 71.55 192.83 71.7 192.34L71.95 191.47L74.77 190.64L76.15 185.9L74.23 183.66L74.49 182.78C74.65 182.22 74.55 181.71 74 181.54C73.44 181.38 73.07 181.76 72.91 182.32Z" />
		<path class="shp16" d="M72.91 182.32L71.98 185.52L71.42 181.54C71.4 180.96 70.69 180.44 70.12 180.46C69.54 180.48 68.97 180.93 68.99 181.51L69.24 191.95C69.25 192.47 69.85 192.96 70.36 193.02C70.87 193.09 71.55 192.83 71.7 192.34L71.95 191.47L74.77 190.64L76.15 185.9L74.23 183.66L74.49 182.78C74.65 182.22 74.55 181.7 74 181.54C73.44 181.38 73.07 181.76 72.91 182.32Z" />
		<path class="shp22" d="M30.8 175.19C28.62 182.69 32.92 190.55 40.41 192.74C44.01 193.79 47.66 192.87 50.99 191.82C58.35 189.53 61.01 192.83 61.7 190.46L63.38 184.72L65.07 178.95C65.76 176.58 61.74 177.94 56.78 172.03C54.53 169.36 52.05 166.65 48.45 165.6C40.95 163.41 33 167.69 30.8 175.19Z" />
		<path class="shp12" d="M30.8 175.19C28.62 182.69 32.92 190.55 40.41 192.74C44.01 193.79 47.66 192.87 50.99 191.82C58.35 189.53 61.01 192.83 61.7 190.46L63.38 184.72L65.07 178.95C65.76 176.58 61.74 177.94 56.78 172.03C54.53 169.36 52.05 166.65 48.45 165.6C40.95 163.41 33 167.69 30.8 175.19Z" />
		<path class="shp19" d="M50.37 174.17C50.43 174.22 56.82 179.23 63.34 180.89C63.74 180.99 64.01 181.31 63.94 181.61C63.94 181.62 63.94 181.63 63.94 181.64C63.86 181.91 63.49 182.05 63.1 181.96C57.63 180.57 52.44 177.1 50.35 175.59L49.8 177.49C49.72 177.74 49.42 177.88 49.08 177.84L51.06 179.2C51.33 179.39 51.43 179.68 51.3 179.9C51.17 180.12 50.85 180.21 50.52 180.13L49.24 179.82L50.85 180.85C51.15 181.03 51.26 181.33 51.12 181.56C50.98 181.79 50.64 181.88 50.29 181.78L48.96 181.39L50.29 182.29C50.56 182.48 50.66 182.78 50.53 182.99C50.4 183.21 50.07 183.3 49.73 183.22L47.48 182.62L47.86 182.97C48.02 183.12 48.1 183.32 48.05 183.49L47.51 185.32C53.12 184.79 61.21 186.81 61.58 186.91C61.98 187.01 62.25 187.33 62.19 187.63C62.14 187.92 61.74 188.08 61.34 187.97C61.25 187.95 51.98 185.63 46.81 186.59C46.55 186.64 46.26 186.57 46.05 186.41C45.84 186.25 45.75 186.03 45.81 185.83L46.53 183.35L44.87 181.82C44.65 181.62 44.6 181.35 44.74 181.16C44.9 180.97 45.21 180.89 45.52 180.98L46.83 181.32L45.27 180.26C44.99 180.07 44.89 179.78 45.03 179.55C45.17 179.33 45.51 179.25 45.85 179.35L46.84 179.64L45.7 178.91C45.41 178.72 45.3 178.43 45.42 178.21C45.54 177.98 45.87 177.88 46.21 177.96L47.82 178.35L46.16 177.21C45.9 177.03 45.8 176.75 45.91 176.53C46.02 176.31 46.33 176.21 46.66 176.27L48.5 176.61L49.17 174.31C49.23 174.13 49.41 173.99 49.66 173.96C49.9 173.93 50.17 174.01 50.37 174.17Z" />
		<path class="shp14" d="M34.71 174.39C32.77 181 36.62 187.95 43.3 189.91" />
		<path class="shp23" d="M133.52 58.14C132.14 58.14 131.03 57.03 131.03 55.65L131.03 37.95C131.03 36.57 132.14 35.46 133.52 35.46C134.89 35.46 136.01 36.57 136.01 37.95L136.01 55.65C136.01 57.03 134.89 58.14 133.52 58.14Z" />
		<path class="shp24" d="M158.12 68.68C156.99 67.9 156.72 66.35 157.5 65.22L167.63 50.7C168.42 49.57 169.97 49.29 171.1 50.08C172.22 50.87 172.5 52.42 171.71 53.54L161.59 68.07C160.8 69.19 159.25 69.47 158.12 68.68Z" />
		<path class="shp25" d="M174.01 84.42C173.37 83.21 173.84 81.7 175.06 81.06L190.74 72.84C191.96 72.2 193.46 72.67 194.1 73.89C194.73 75.1 194.27 76.61 193.05 77.25L177.37 85.47C176.15 86.11 174.65 85.64 174.01 84.42Z" />
		<path class="shp26" d="M108.36 68.68C109.48 67.9 109.76 66.35 108.97 65.22L98.85 50.7C98.06 49.57 96.51 49.29 95.38 50.08C94.26 50.87 93.98 52.42 94.77 53.54L104.89 68.07C105.68 69.19 107.23 69.47 108.36 68.68Z" />
		<path class="shp27" d="M92.36 84.42C93 83.21 92.53 81.7 91.32 81.06L75.64 72.84C74.42 72.2 72.91 72.67 72.28 73.89C71.64 75.1 72.11 76.61 73.33 77.25L89 85.47C90.22 86.11 91.72 85.64 92.36 84.42Z" />
		<path class="shp28" d="M164.87 231.48L186.92 179.06C186.92 179.06 226.26 189.95 242.9 168.29C243.74 167.2 241.76 174.78 241.76 174.78L223.9 223.14C223.9 223.14 216.94 248.5 165.17 230.79" />
		<path class="shp29" d="M225.07 199.82C225.07 199.82 212.43 206.05 187.57 199.57M225.02 205.99C225.02 205.99 215.2 213.33 189.97 208.5M222.17 214.07C222.17 214.07 214.76 221.21 187.7 216.21M220.54 222.64C220.54 222.64 207.5 229.47 178.38 221.51" />
		<path class="shp30" d="M182.94 187.28L186.92 179.06C186.92 179.06 226.26 189.95 242.9 168.29C243.74 167.2 241.76 174.78 241.76 174.78C241.76 174.78 239.14 202.38 183.58 187.92" />
		<path class="shp31" d="M216.21 209.12C223.92 217.69 221.23 226.68 220.41 228.86L247.77 161.88C247.61 151.98 241.98 147.25 241.98 147.25C241.98 147.25 216.01 208.9 216.21 209.12ZM220.2 229.35C220.2 229.35 220.29 229.18 220.41 228.86L220.2 229.35Z" />
		<path class="shp32" d="M247.77 161.88C247.61 151.98 241.98 147.25 241.98 147.25C241.98 147.25 216.01 208.9 216.21 209.12C225.06 218.95 220.21 229.35 220.21 229.35L247.77 161.88Z" />
		<path class="shp33" d="M191.43 184.75C190.96 185.75 189.83 186.22 188.91 185.79C187.98 185.35 187.61 184.18 188.09 183.18C188.56 182.17 189.69 181.7 190.62 182.14C191.54 182.57 191.91 183.74 191.43 184.75Z" />
		<path class="shp34" d="M196.38 185.54C195.99 186.58 194.9 187.13 193.94 186.77C192.99 186.42 192.53 185.28 192.92 184.25C193.31 183.2 194.4 182.64 195.35 183.01C196.31 183.36 196.77 184.5 196.38 185.54Z" />
		<path class="shp35" d="M201.21 186.43C200.85 187.48 199.77 188.06 198.81 187.73C197.84 187.4 197.35 186.28 197.72 185.23C198.08 184.18 199.15 183.59 200.12 183.92C201.08 184.25 201.57 185.38 201.21 186.43Z" />
		<path class="shp28" d="M82.54 2.56L80.88 59.03C80.88 59.03 40.53 63.01 32.86 89.03C32.47 90.35 31.59 82.62 31.59 82.62L30.84 31.41C30.84 31.41 28.22 5.43 82.52 3.31" />
		<path class="shp29" d="M42.5 64.69C42.5 64.69 47.49 56.7 72.17 50.21M41.01 56.71C41.01 56.71 43.29 49.26 67.48 41.16M39.54 48.04C39.54 48.04 51.31 35.21 67.97 32.69M36.78 39.84C36.78 39.84 52.51 24.8 72.66 23.15" />
		<path class="shp30" d="M81.63 2.93L80.97 15.5C80.97 15.5 40.53 15.96 32.86 41.98C32.47 43.29 31.59 35.56 31.59 35.56C31.59 35.56 24.15 9.05 80.8 2.56" />
		<path class="shp36" d="M30.65 96.72C34.34 105.83 41.24 108.2 41.24 108.2C41.24 108.2 43.25 41.79 42.98 41.66C31.27 35.71 31.08 29.34 31.08 29.34L30.65 96.72Z" />
		<path class="shp32" d="M30.65 96.72C34.34 105.83 41.24 108.2 41.24 108.2C41.24 108.2 43.25 41.79 42.98 41.66C31.27 35.71 31.08 29.34 31.08 29.34L30.65 96.72Z" />
	</g>
</svg>