<?xml version="1.0" encoding="utf-8"?><svg viewBox="0 0 272 258" xmlns="http://www.w3.org/2000/svg" xmlns:xlink="http://www.w3.org/1999/xlink"><style>:root>svg{display:none}:root>svg:target{display:block}</style><svg viewBox="0 0 260 258" id="hello" xmlns="http://www.w3.org/2000/svg"><defs><linearGradient id="agrd1" gradientUnits="userSpaceOnUse" x1="224.998" y1="124.477" x2="251.947" y2="124.477"><stop offset="0" stop-color="#f79d2a"/><stop offset="1" stop-color="#ffcd2e"/></linearGradient><linearGradient id="agrd2" gradientUnits="userSpaceOnUse" x1="66.846" y1="12.221" x2="81.926" y2="12.221"><stop offset="0" stop-color="#f79d2a"/><stop offset="1" stop-color="#ffcd2e"/></linearGradient><linearGradient id="agrd3" gradientUnits="userSpaceOnUse" x1="0" y1="58.74" x2="26.711" y2="58.74"><stop offset="0" stop-color="#f79d2a"/><stop offset="1" stop-color="#ffcd2e"/></linearGradient><linearGradient id="agrd4" gradientUnits="userSpaceOnUse" x1="174.676" y1="244.645" x2="201.387" y2="244.645"><stop offset="0" stop-color="#f79d2a"/><stop offset="1" stop-color="#ffcd2e"/></linearGradient><linearGradient id="agrd5" gradientUnits="userSpaceOnUse" x1="90.297" y1="108.436" x2="171.835" y2="108.436"><stop offset="0" stop-color="#f79d2a"/><stop offset="1" stop-color="#ffcd2e"/></linearGradient><clipPath clipPathUnits="userSpaceOnUse" id="acp1"><path d="M0 0h260v258H0z"/></clipPath></defs><style>.ashp0{fill:#8cc34b}.ashp1{fill:url(#agrd1)}.ashp2{fill:url(#agrd2)}.ashp3{fill:url(#agrd3)}.ashp4{fill:url(#agrd4)}.ashp5{fill:url(#agrd5)}.ashp6,.ashp7,.ashp8{fill:none;stroke:#515151;stroke-width:4}.ashp7,.ashp8{stroke-linecap:round}.ashp8{stroke-width:2}.ashp9{fill:#fff}.ashp10,.ashp11{fill:none;stroke:#fff;stroke-width:12}.ashp11{fill:#fff}.ashp12,.ashp13{fill:none;stroke:#434347;stroke-width:4}.ashp13{stroke:#000;stroke-linecap:round;stroke-width:8}</style><g clip-path="url(#acp1)"><path class="ashp0" d="M154.5.4c0 6.53-5.3 11.82-11.83 11.82 6.53 0 11.83 5.3 11.83 11.83 0-6.53 5.29-11.83 11.82-11.83-6.53 0-11.82-5.29-11.82-11.82zM16.95 178.12c0 6.54-5.29 11.83-11.82 11.83 6.53 0 11.82 5.29 11.82 11.83 0-6.54 5.3-11.83 11.83-11.83-6.53 0-11.83-5.29-11.83-11.83zm41.5-115.28c0 4.64-3.76 8.39-8.39 8.39 4.63 0 8.39 3.76 8.39 8.4 0-4.64 3.76-8.4 8.4-8.4-4.64 0-8.4-3.75-8.4-8.39zm65.78 154.93c0 4.64-3.76 8.4-8.39 8.4 4.63 0 8.39 3.75 8.39 8.39 0-4.64 3.76-8.39 8.4-8.39-4.64 0-8.4-3.76-8.4-8.4zm127.72-23.5c0 4.64-3.76 8.4-8.4 8.4 4.64 0 8.4 3.76 8.4 8.4 0-4.64 3.76-8.4 8.39-8.4-4.63 0-8.39-3.76-8.39-8.4z"/><path class="ashp1" d="M225 124.48c7.44 0 13.47 6.03 13.47 13.47 0-7.44 6.04-13.47 13.48-13.47-7.44 0-13.48-6.04-13.48-13.48 0 7.44-6.03 13.48-13.47 13.48z"/><path class="ashp2" d="M66.85 12.22c4.16 0 7.54 3.38 7.54 7.54 0-4.16 3.37-7.54 7.54-7.54-4.17 0-7.54-3.37-7.54-7.54 0 4.17-3.38 7.54-7.54 7.54z"/><path class="ashp3" d="M0 58.74c7.37 0 13.35 5.98 13.35 13.36 0-7.38 5.98-13.36 13.36-13.36-7.38 0-13.36-5.98-13.36-13.36 0 7.38-5.98 13.36-13.35 13.36z"/><path class="ashp4" d="M174.68 244.64c7.37 0 13.35 5.98 13.35 13.36 0-7.38 5.98-13.36 13.36-13.36-7.38 0-13.36-5.97-13.36-13.35 0 7.38-5.98 13.35-13.35 13.35z"/><path class="ashp5" d="M122.82 50.37v5.94a9.307 9.307 0 00-7.71-4.07c-5.17 0-9.35 4.19-9.35 9.35v12.39c-1.72-2.12-4.31-3.51-7.25-3.51-5.17 0-9.35 4.19-9.35 9.36v64.11c-1.4 29.11 9.99 31.91 9.99 31.91h63.92c5.47-7.56 7.77-14.82 8.68-20.51h.17v-1.11c.83-6.21 0-10.29 0-10.29V91.3c-1.26-.38-2.56-.64-3.93-.64-4.01 0-7.58 1.73-10.1 4.47V61.59c0-5.16-4.18-9.35-9.35-9.35-2.81 0-5.3 1.27-7.01 3.23v-5.1c0-5.16-4.19-9.35-9.35-9.35-5.17 0-9.36 4.19-9.36 9.35z"/><path class="ashp6" d="M171.92 154.23c.83-6.21 0-10.29 0-10.29V91.3c-1.26-.38-2.56-.64-3.93-.64-4.01 0-7.58 1.73-10.1 4.47V61.59c0-5.16-4.18-9.35-9.35-9.35-2.81 0-5.3 1.27-7.01 3.23v-5.1c0-5.17-4.19-9.35-9.35-9.35-5.17 0-9.36 4.18-9.36 9.35v5.94a9.332 9.332 0 00-7.71-4.07c-5.17 0-9.35 4.19-9.35 9.35v12.39c-1.72-2.12-4.31-3.51-7.25-3.51-5.17 0-9.35 4.19-9.35 9.36v64.11c-1.4 29.11 9.99 31.91 9.99 31.91h63.92c5.47-7.56 7.77-14.82 8.68-20.51h.17v-1.11z"/><path class="ashp7" d="M172.18 155.34V91.3c-1.26-.38-2.56-.64-3.93-.64-7.6 0-13.76 6.15-13.76 13.75v24.16"/><path class="ashp8" d="M125.5 175.85c-.12-1.41-.18-2.85-.18-4.3 0-22.83 15.34-41.34 34.28-41.34"/><path class="ashp7" d="M105.79 71.24v40.97M123 56.13v56.09m18.64-57.76v57.76"/><path class="ashp8" d="M148.92 66.97h-7.28m7.28 22.44h-7.28m-11.36-28.52H123m-9.94 9.58h-7.27m7.27 23.62h-7.27m-9.48-4.68h-7.27m7.27 14.5h-7.27m41.24-17.36H123"/><path class="ashp9" d="M135.37 130.85l-1.61.61c-1.02.4-2.42 1.08-4.12 1.85-3.29 1.68-7.65 4.11-11.08 7.29-3.65 3.03-6.18 6.68-7.82 9.44-.86 1.37-1.19 2.6-1.6 3.42-.35.83-.55 1.31-.55 1.31l4.56.71.5-1.17c.37-.74.64-1.86 1.43-3.08 1.47-2.45 3.69-5.69 6.94-8.38 3.03-2.82 6.96-5.01 9.94-6.54 1.55-.69 2.82-1.31 3.75-1.68.94-.35 1.48-.56 1.48-.56l-1.82-3.22zm13.67-3.83l.72 3.53s-.46.08-1.15.21c-.68.14-1.6.35-2.52.55-1.81.46-3.61.95-3.61.95l-1.36-3.38s1.96-.52 3.92-1.03c1-.21 1.99-.43 2.74-.59.76-.14 1.26-.24 1.26-.24zm-41.76 32.36l4.68.29s-.09.35-.21.88-.32 1.24-.31 1.96c-.07 1.43-.15 2.86-.15 2.86l-4.74.19s.09-1.54.17-3.09c-.01-.77.2-1.55.34-2.12.13-.59.22-.97.22-.97zm-1.87-32.14s.41.12 1.12.31c.73.18 1.79.33 3.04.56 2.54.31 6.03.56 9.48-.16 3.48-.5 6.77-1.97 9.12-3.21 1.2-.58 2.05-1.33 2.72-1.72.64-.45 1-.7 1-.7l-1.79-2.61s-.33.22-.91.62c-.6.35-1.37 1.04-2.43 1.55-2.1 1.09-5.01 2.41-8.1 2.85-3.07.65-6.21.41-8.51.15-1.14-.22-2.11-.36-2.77-.52l-1.03-.28-.94 3.16zm-8.78-3.53l1.65-2.88s.27.15.67.38c.42.21.97.49 1.53.76 1.14.5 2.28.98 2.28.98l-1.25 3.06s-1.24-.51-2.48-1.06c-.6-.3-1.21-.6-1.66-.83-.44-.25-.74-.41-.74-.41zm38.51-4.11l-2.1-2.37s.24-.21.6-.54c.36-.33.86-.74 1.26-1.27.85-1 1.69-2 1.69-2l2.4 2.05-1.83 2.15c-.43.56-.97 1.02-1.37 1.38l-.65.6zm1.34 4.11s-6.39 3.15-12.84 6.16a389.25 389.25 0 01-12.98 5.81l1.16 2.76s6.62-2.79 13.09-5.85c6.48-3.03 12.89-6.19 12.89-6.19l-1.32-2.69zm8.95-4.47l1.35 2.68-5.12 2.56-1.33-2.69 5.1-2.55zm-38.69 18l1.09 2.8s-1.36.5-2.72 1.01c-1.4.46-2.79.92-2.79.92l-.84-2.88s1.31-.43 2.63-.86c1.31-.5 2.63-.99 2.63-.99zM75.46 162.1c-.87 4.62-2.43 13.93-3.57 23.5 2.57-2.57 6.9-6.17 11.25-6.77 6.83-.94 8.89 3.13 7.86 9.44-.86 5.26-4.46 17.61-.16 16.7 2.47-.49 5.96-5.56 7.49-10.51.4-1.17 3.96.56 3.6 1.4-2.49 6.67-7.01 15.2-15.69 17.02-7.84 1.64-9.71-2.77-9.73-7.51 0-4.04 1.46-12.38 1.73-13.84.42-2.12.05-3.65-2.09-3.12-1.45.36-3.6 2-5.29 4.05-1.02 8.13-1.92 15.37-2.56 21.63-.16 1.76-13.44 4.61-12.99.99 2.09-16.97 5.51-40.37 7.55-53.15 2.46-2.23 12.42-2.26 12.6.17z"/><path class="ashp10" d="M75.46 162.1c-.87 4.62-2.43 13.93-3.57 23.5 2.57-2.57 6.9-6.17 11.25-6.77 6.83-.94 8.89 3.13 7.86 9.44-.86 5.26-4.46 17.61-.16 16.7 2.47-.49 5.96-5.56 7.49-10.51.4-1.17 3.96.56 3.6 1.4-2.49 6.67-7.01 15.2-15.69 17.02-7.84 1.64-9.71-2.77-9.73-7.51 0-4.04 1.46-12.38 1.73-13.84.42-2.12.05-3.65-2.09-3.12-1.45.36-3.6 2-5.29 4.05-1.02 8.13-1.92 15.37-2.56 21.63-.16 1.76-13.44 4.61-12.99.99 2.09-16.97 5.51-40.37 7.55-53.15 2.46-2.23 12.42-2.26 12.6.17z"/><path fill-rule="evenodd" class="ashp11" d="M128.91 186.77c-1.88 5.87-8.65 9.57-17.6 9.46.95 4.06 4.38 5.41 9.98 4.71 4.43-.53 11.08-3.34 14.06-11.58.4-1.16 3.96.56 3.66 1.32-4.54 11.85-11.45 16.76-20.93 17.98-13.44 1.77-19.36-5.09-19.72-13.42-.47-10.92 7.22-19.42 18.49-20.81 10.11-1.23 14.47 5.76 12.06 12.34zm-17.9 4.44c4.53-.47 6.83-3.87 7.18-6.45.26-1.61-.23-2.81-1.41-2.81-2.85 0-5.3 4.05-5.77 9.26z"/><path fill-rule="evenodd" class="ashp11" d="M165.46 161.65c-.63 10.37-7.25 19.11-18.62 23.84-.7 7.61 1.37 11.67 6.66 11.1 3.58-.41 9.06-2.59 12.26-11.49.34-1 3.74.75 3.52 1.41-3.4 9.25-8.01 17.08-19.72 17.58-12.11.56-14.96-9.8-13.9-25.13.8-11.42 4.38-22.74 11.11-27.86 7.88-5.99 19.48-2.12 18.69 10.55zm-15.69 3.75c-.82 3.82-1.98 9.2-2.47 13.07 3.49-2.22 6.32-8.07 7.44-12.57 1.14-4.9 1.05-9.63-.89-9.37-1.63.23-3 4.13-4.08 8.87z"/><path fill-rule="evenodd" class="ashp11" d="M195.73 157.49c-.63 10.37-7.26 19.11-18.63 23.84-.69 7.6 1.37 11.67 6.67 11.1 3.58-.41 9.05-2.59 12.26-11.49.34-1 3.74.75 3.51 1.41-3.39 9.25-8.01 17.08-19.72 17.58-12.1.56-14.95-9.81-13.9-25.13.81-11.42 4.39-22.75 11.12-27.86 7.87-5.99 19.48-2.13 18.69 10.55zm-15.7 3.74c-.81 3.83-1.97 9.21-2.47 13.07 3.49-2.22 6.33-8.06 7.44-12.57 1.15-4.9 1.05-9.63-.89-9.36-1.63.22-2.99 4.13-4.08 8.86z"/><path fill-rule="evenodd" class="ashp11" d="M227.84 184.55c3.71-.04 7.7-3.2 9.64-9.24.39-1.16 3.94.49 3.6 1.41-4.01 11.14-10.96 12.34-16.56 12.47-3.44 3.72-8.11 5.95-13.31 6.66-9.16 1.26-16.54-2.39-15.27-15.53 1.09-11.62 9.18-18.35 18.74-19.58 14.53-1.84 18.63 11.27 13.16 23.81zm-19.05-6.24c-.61 4.75-1.28 10.77 3.22 10.15 1.01-.13 1.95-.74 2.62-1.62-1.56-2.16-.3-5.65 2.32-6.09 1.23-6.66.88-13.17-2.99-12.56-2.78.46-4.43 4.56-5.17 10.12z"/><path class="ashp12" d="M237.48 175.31c-1.94 6.05-5.93 9.2-9.64 9.24 5.47-12.54 1.37-25.65-13.16-23.81-9.56 1.23-17.65 7.96-18.74 19.58-.03.34-.04.66-.06.99-3.22 8.58-8.58 10.71-12.11 11.12-5.3.57-7.36-3.5-6.67-11.1 11.37-4.73 18-13.47 18.63-23.84.79-12.68-10.82-16.54-18.69-10.55-6.73 5.11-10.31 16.44-11.12 27.86-.25 3.7-.27 7.1.01 10.14-.07.05-.14.08-.17.16-3.2 8.9-8.68 11.08-12.26 11.49-5.29.57-7.36-3.49-6.66-11.1 11.37-4.73 17.99-13.47 18.62-23.84.79-12.67-10.81-16.53-18.69-10.55-6.73 5.12-10.31 16.44-11.11 27.86-.26 3.68-.27 7.07 0 10.09-.15.06-.26.16-.31.31-2.98 8.24-9.63 11.05-14.06 11.58-5.6.7-9.03-.65-9.98-4.71 8.95.11 15.72-3.59 17.6-9.46 2.42-6.58-1.95-13.57-12.06-12.34-10.99 1.36-18.55 9.47-18.48 19.99-.01.02-.03.02-.04.04-1.53 4.95-5.02 10.02-7.48 10.51-4.31.91-.71-11.44.15-16.7 1.03-6.31-1.03-10.38-7.86-9.44-4.35.6-8.68 4.2-11.25 6.77 1.14-9.57 2.7-18.88 3.57-23.5-.18-2.43-10.14-2.4-12.6-.17-2.04 12.78-5.46 36.18-7.55 53.15-.45 3.62 12.84.77 12.99-.99.64-6.26 1.54-13.5 2.56-21.63 1.69-2.05 3.84-3.69 5.29-4.05 2.14-.53 2.51 1 2.09 3.12-.27 1.46-1.73 9.8-1.73 13.84.02 4.74 1.89 9.15 9.73 7.51 6.53-1.37 10.71-6.54 13.43-11.85 2.43 5.4 8.29 8.96 18.41 7.63 8.1-1.04 14.32-4.79 18.79-13.25 1.87 5.73 5.75 9 12.69 8.68 9.52-.41 14.35-5.66 17.65-12.59 1.9 5.58 5.78 8.75 12.61 8.43 8.78-.38 13.58-4.87 16.85-11 2.11 6.12 7.84 7.84 14.54 6.92 5.2-.71 9.87-2.94 13.31-6.65 5.6-.14 12.55-1.33 16.56-12.48.34-.92-3.21-2.57-3.6-1.41zm-120.7 6.64c1.18 0 1.66 1.2 1.41 2.81-.36 2.59-2.65 5.98-7.18 6.45.48-5.21 2.92-9.26 5.77-9.26zm32.98-16.55c1.09-4.74 2.46-8.64 4.09-8.87 1.94-.26 2.03 4.47.89 9.37-1.12 4.5-3.95 10.35-7.45 12.57.5-3.86 1.66-9.25 2.47-13.07zm30.27-4.17c1.09-4.73 2.45-8.64 4.08-8.86 1.94-.27 2.04 4.46.89 9.36-1.11 4.51-3.95 10.35-7.44 12.57.5-3.86 1.66-9.24 2.47-13.07zm36.93 19.52c-2.63.44-3.89 3.93-2.33 6.09-.67.88-1.61 1.49-2.62 1.62-4.5.62-3.83-5.4-3.22-10.15.74-5.56 2.39-9.66 5.17-10.12 3.87-.61 4.22 5.9 3 12.56z"/><path class="ashp13" d="M179.84 36.82s22.67 10.29 14.67 43.98m6.96-48.29s16.26 7.39 10.52 31.57M55.08 141.45s-22.19-11.28-12.71-44.59m-9.08 47.94s-15.92-8.1-9.12-32"/></g></svg><svg viewBox="0 0 272 253" id="lamp" xmlns="http://www.w3.org/2000/svg"><defs><linearGradient id="bgrd1" gradientUnits="userSpaceOnUse" x1=".482" y1="133.516" x2="27.432" y2="133.516"><stop offset="0" stop-color="#f79d2a"/><stop offset="1" stop-color="#ffcd2e"/></linearGradient><linearGradient id="bgrd2" gradientUnits="userSpaceOnUse" x1="184.119" y1="151.951" x2="201.436" y2="151.951"><stop offset="0" stop-color="#f79d2a"/><stop offset="1" stop-color="#ffcd2e"/></linearGradient><linearGradient id="bgrd3" gradientUnits="userSpaceOnUse" x1="247.766" y1="218.01" x2="272.082" y2="218.01"><stop offset="0" stop-color="#f79d2a"/><stop offset="1" stop-color="#ffcd2e"/></linearGradient><linearGradient id="bgrd4" gradientUnits="userSpaceOnUse" x1="203.055" y1="37.893" x2="218.135" y2="37.893"><stop offset="0" stop-color="#f79d2a"/><stop offset="1" stop-color="#ffcd2e"/></linearGradient><linearGradient id="bgrd5" gradientUnits="userSpaceOnUse" x1="25.875" y1="215.262" x2="41.492" y2="215.262"><stop offset="0" stop-color="#f79d2a"/><stop offset="1" stop-color="#ffcd2e"/></linearGradient><linearGradient id="bgrd6" gradientUnits="userSpaceOnUse" x1="125.633" y1="244.602" x2="142.43" y2="244.602"><stop offset="0" stop-color="#f79d2a"/><stop offset="1" stop-color="#ffcd2e"/></linearGradient><linearGradient id="bgrd7" gradientUnits="userSpaceOnUse" x1="0" y1="31.693" x2="15.514" y2="31.693"><stop offset="0" stop-color="#f79d2a"/><stop offset="1" stop-color="#ffcd2e"/></linearGradient><linearGradient id="bgrd8" gradientUnits="userSpaceOnUse" x1="117.516" y1="173.514" x2="149.638" y2="173.514"><stop offset="0" stop-color="#76767d"/><stop offset="1" stop-color="#a4a8a8"/></linearGradient><linearGradient id="bgrd9" gradientUnits="userSpaceOnUse" x1="117.368" y1="186.01" x2="149.442" y2="186.01"><stop offset="0" stop-color="#76767d"/><stop offset="1" stop-color="#a4a8a8"/></linearGradient><linearGradient id="bgrd10" gradientUnits="userSpaceOnUse" x1="95.26" y1="117.107" x2="171.773" y2="117.107"><stop offset="0" stop-color="#f79d2a"/><stop offset="1" stop-color="#ffcd2e"/></linearGradient><linearGradient id="bgrd11" gradientUnits="userSpaceOnUse" x1="204.565" y1="107.431" x2="218.965" y2="115.803"><stop offset="0" stop-color="#76767d"/><stop offset="1" stop-color="#a4a8a8"/></linearGradient><linearGradient id="bgrd12" gradientUnits="userSpaceOnUse" x1="201.268" y1="113.107" x2="215.753" y2="121.528"><stop offset="0" stop-color="#76767d"/><stop offset="1" stop-color="#a4a8a8"/></linearGradient><linearGradient id="bgrd13" gradientUnits="userSpaceOnUse" x1="210.889" y1="77.884" x2="241.811" y2="95.861"><stop offset="0" stop-color="#f79d2a"/><stop offset="1" stop-color="#ffcd2e"/></linearGradient><linearGradient id="bgrd14" gradientUnits="userSpaceOnUse" x1="65.454" y1="191.58" x2="68.819" y2="180.066"><stop offset="0" stop-color="#76767d"/><stop offset="1" stop-color="#a4a8a8"/></linearGradient><linearGradient id="bgrd15" gradientUnits="userSpaceOnUse" x1="69.883" y1="192.839" x2="73.246" y2="181.332"><stop offset="0" stop-color="#76767d"/><stop offset="1" stop-color="#a4a8a8"/></linearGradient><linearGradient id="bgrd16" gradientUnits="userSpaceOnUse" x1="43.913" y1="192.959" x2="51.275" y2="167.769"><stop offset="0" stop-color="#f79d2a"/><stop offset="1" stop-color="#ffcd2e"/></linearGradient><linearGradient id="bgrd17" gradientUnits="userSpaceOnUse" x1="133.52" y1="35.461" x2="133.52" y2="58.141"><stop offset="0" stop-color="#f79d2a"/><stop offset="1" stop-color="#ffcd2e"/></linearGradient><linearGradient id="bgrd18" gradientUnits="userSpaceOnUse" x1="170.879" y1="50.397" x2="158.34" y2="68.374"><stop offset="0" stop-color="#f79d2a"/><stop offset="1" stop-color="#ffcd2e"/></linearGradient><linearGradient id="bgrd19" gradientUnits="userSpaceOnUse" x1="193.764" y1="74.063" x2="174.344" y2="84.249"><stop offset="0" stop-color="#f79d2a"/><stop offset="1" stop-color="#ffcd2e"/></linearGradient><linearGradient id="bgrd20" gradientUnits="userSpaceOnUse" x1="95.599" y1="50.393" x2="108.139" y2="68.371"><stop offset="0" stop-color="#f79d2a"/><stop offset="1" stop-color="#ffcd2e"/></linearGradient><linearGradient id="bgrd21" gradientUnits="userSpaceOnUse" x1="72.612" y1="74.063" x2="92.031" y2="84.248"><stop offset="0" stop-color="#f79d2a"/><stop offset="1" stop-color="#ffcd2e"/></linearGradient><linearGradient id="bgrd22" gradientUnits="userSpaceOnUse" x1="205.394" y1="214.095" x2="257.016" y2="162.495"><stop offset="0" stop-color="#9ca5aa"/><stop offset=".124" stop-color="#9ca5aa"/><stop offset="1" stop-color="#cfd7db"/></linearGradient><linearGradient id="bgrd23" gradientUnits="userSpaceOnUse" x1="49.555" y1="38.284" x2="22.541" y2="99.268"><stop offset="0" stop-color="#9ca5aa"/><stop offset=".124" stop-color="#9ca5aa"/><stop offset="1" stop-color="#cfd7db"/></linearGradient><clipPath clipPathUnits="userSpaceOnUse" id="bcp1"><path d="M0 0h272v253H0z"/></clipPath></defs><style>.bshp0{fill:#8cc34b}.bshp1{fill:url(#bgrd1)}.bshp2{fill:url(#bgrd2)}.bshp3{fill:url(#bgrd3)}.bshp4{fill:url(#bgrd4)}.bshp5{fill:url(#bgrd5)}.bshp6{fill:url(#bgrd6)}.bshp7{fill:url(#bgrd7)}.bshp8{fill:url(#bgrd8)}.bshp9{fill:none;stroke:#444;stroke-width:4}.bshp10{fill:url(#bgrd9)}.bshp11{fill:url(#bgrd10)}.bshp12{fill:none;stroke:#515151;stroke-width:4}.bshp13{fill:#fff}.bshp14{fill:none;stroke:#fff;stroke-linecap:round;stroke-width:6}.bshp15{opacity:.698;fill:url(#bgrd11)}.bshp16{fill:none;stroke:#444;stroke-width:2}.bshp17,.bshp18{opacity:.698;fill:url(#bgrd12)}.bshp18{fill:url(#bgrd13)}.bshp19,.bshp20{opacity:.698;fill:#fff}.bshp20{fill:url(#bgrd14)}.bshp21,.bshp22{opacity:.698;fill:url(#bgrd15)}.bshp22{fill:url(#bgrd16)}.bshp23{opacity:.502;fill:url(#bgrd17)}.bshp24,.bshp25{opacity:.502;fill:url(#bgrd18)}.bshp25{fill:url(#bgrd19)}.bshp26,.bshp27{opacity:.502;fill:url(#bgrd20)}.bshp27{fill:url(#bgrd21)}.bshp28{fill:#e8e8e8;stroke:#444;stroke-width:4}.bshp29{fill:none;stroke:#000;stroke-linecap:round;stroke-width:6}.bshp30{fill:#434347}.bshp31{fill:url(#bgrd22)}.bshp32{fill:none;stroke:#565656;stroke-width:4}.bshp33{fill:#ec4643}.bshp34{fill:#ffcd2e}.bshp35{fill:#c2e046}.bshp36{fill:url(#bgrd23)}</style><g clip-path="url(#bcp1)"><path class="bshp0" d="M257.36 110.08c0 6.96-5.65 12.61-12.61 12.61 6.96 0 12.61 5.63 12.61 12.59 0-6.96 5.63-12.59 12.59-12.59-6.96 0-12.59-5.65-12.59-12.61zM80.41 135.43c0 4.34-3.52 7.86-7.85 7.86a7.85 7.85 0 017.85 7.85c0-4.34 3.51-7.85 7.84-7.85-4.33 0-7.84-3.52-7.84-7.86zM167.78.35c0 6.54-5.3 11.83-11.83 11.83 6.53 0 11.83 5.29 11.83 11.82 0-6.53 5.29-11.82 11.82-11.82-6.53 0-11.82-5.29-11.82-11.83zM95 209.33c0 4.64-3.76 8.4-8.4 8.4 4.64 0 8.4 3.75 8.4 8.39 0-4.64 3.76-8.39 8.39-8.39-4.63 0-8.39-3.76-8.39-8.4z"/><path class="bshp1" d="M.48 133.52c7.44 0 13.48 6.03 13.48 13.47 0-7.44 6.03-13.47 13.47-13.47-7.44 0-13.47-6.04-13.47-13.48 0 7.44-6.04 13.48-13.48 13.48z"/><path class="bshp2" d="M184.12 151.95c4.78 0 8.66 3.88 8.66 8.66 0-4.78 3.87-8.66 8.66-8.66-4.79 0-8.66-3.88-8.66-8.66 0 4.78-3.88 8.66-8.66 8.66z"/><path class="bshp3" d="M247.77 218.01c6.71 0 12.16 5.44 12.16 12.16 0-6.72 5.44-12.16 12.15-12.16-6.71 0-12.15-5.44-12.15-12.16 0 6.72-5.45 12.16-12.16 12.16z"/><path class="bshp4" d="M203.05 37.89c4.17 0 7.54 3.38 7.54 7.54 0-4.16 3.38-7.54 7.54-7.54-4.16 0-7.54-3.37-7.54-7.54 0 4.17-3.37 7.54-7.54 7.54z"/><path class="bshp5" d="M25.88 215.26c4.31 0 7.8 3.5 7.8 7.81 0-4.31 3.5-7.81 7.81-7.81-4.31 0-7.81-3.49-7.81-7.81a7.8 7.8 0 01-7.8 7.81z"/><path class="bshp6" d="M125.63 244.6c4.64 0 8.4 3.76 8.4 8.4 0-4.64 3.76-8.4 8.4-8.4-4.64 0-8.4-3.76-8.4-8.4 0 4.64-3.76 8.4-8.4 8.4z"/><path class="bshp7" d="M0 31.69c4.28 0 7.76 3.48 7.76 7.76 0-4.28 3.47-7.76 7.75-7.76a7.75 7.75 0 01-7.75-7.75c0 4.28-3.48 7.75-7.76 7.75z"/><path class="bshp8" d="M120.03 165.89c-1.57 0-2.84 2.88-2.84 4.45 0 1.56 1.27 4.44 2.84 4.44h9.03l-9.9 1.85c-1.48.48-2.3 1.39-1.82 2.88.39 1.2 1.5 1.63 2.7 1.63.29 0 .59-.22.88-.31l26.94-8.83c1.32-.43 2.14-2.05 1.92-3.43-.22-1.37-1.41-2.68-2.8-2.68h-26.95z"/><path class="bshp9" d="M146.98 165.89h-26.95c-1.57 0-2.84 2.88-2.84 4.45 0 1.56 1.27 4.44 2.84 4.44h9.03l-9.9 1.85c-1.48.48-2.3 1.39-1.82 2.88.39 1.2 1.5 1.63 2.7 1.63.29 0 .58-.22.88-.31l26.94-8.83c1.32-.43 2.14-2.05 1.92-3.43-.22-1.38-1.41-2.68-2.8-2.68z"/><path class="bshp10" d="M146.07 175.1l-26.92 8.58c-1.33.44-2.14 2.34-1.92 3.72.21 1.37 1.4 2.95 2.8 2.95h2.44l4.29 6.68h13.35l4.35-6.68h2.48c1.57 0 2.84-.66 2.84-2.22 0-1.57-1.27-2.22-2.84-2.22h-9l9.88-4.47c1.49-.48 2.31-2.71 1.82-4.2-.41-1.25-1.6-2.25-2.85-2.25-.24 0-.48.04-.72.11z"/><path class="bshp9" d="M146.95 185.91h-9.01l9.88-4.47c1.49-.48 2.31-2.71 1.82-4.2-.48-1.49-2.08-2.62-3.57-2.14l-26.92 8.58c-1.33.44-2.14 2.34-1.92 3.72.21 1.37 1.4 2.96 2.8 2.96h2.44l4.29 6.67h13.35l4.35-6.67h2.49c1.56 0 2.83-.67 2.83-2.23 0-1.57-1.27-2.22-2.83-2.22z"/><path class="bshp11" d="M95.26 109.48c0 10.14 5.16 18.9 10.39 26.76 11.56 17.36 4.99 26.76 11.66 26.76h32.44c6.67 0 .09-9.4 11.65-26.76 5.22-7.86 10.38-16.34 10.38-26.49 0-21.12-17.16-38.51-38.27-38.53-21.11.02-38.25 17.14-38.25 38.26z"/><path class="bshp12" d="M133.51 71.22c-21.11.02-38.25 17.14-38.25 38.25 0 10.15 5.16 18.91 10.39 26.77 11.56 17.35 4.99 26.76 11.66 26.76h32.44c6.67 0 .09-9.41 11.65-26.76 5.23-7.86 10.38-16.34 10.38-26.49 0-21.12-17.16-38.51-38.27-38.53z"/><path class="bshp13" d="M151 121.23c-.09.2-8.26 20.57-7.61 38.74.04 1.12-.6 2.06-1.4 2.12-.03.01-.06.01-.08.01-.78 0-1.44-.85-1.47-1.93-.55-15.26 4.51-31.36 6.85-37.91h-5.36c-.7 0-1.3-.68-1.43-1.6l-2.05 6.18c-.29.84-.96 1.32-1.61 1.15-.67-.16-1.17-.93-1.21-1.86l-.16-3.56-1.44 4.97c-.26.91-.95 1.44-1.65 1.24-.7-.18-1.2-1.01-1.2-1.98v-3.77l-1.33 4.14c-.28.86-.97 1.36-1.63 1.17-.67-.18-1.17-.98-1.19-1.91l-.16-6.28-.61 1.23c-.28.55-.73.89-1.22.89h-5.15c5.63 14.14 6.51 36.68 6.55 37.7.04 1.12-.59 2.07-1.4 2.13-.81.11-1.51-.8-1.55-1.92-.01-.25-1.03-26.09-7.44-38.78-.32-.62-.35-1.42-.1-2.09.26-.66.76-1.08 1.31-1.08h6.99l2.71-5.48c.35-.73 1.01-1.05 1.63-.81.61.24 1.04.99 1.06 1.87l.1 3.66 1.56-4.85c.28-.86.97-1.35 1.65-1.16.69.2 1.17 1.02 1.17 1.98v2.79l1.02-3.53c.26-.88.94-1.4 1.61-1.25.68.15 1.2.92 1.24 1.87l.2 4.48 1.72-5.19c.27-.82.91-1.28 1.56-1.16.65.13 1.16.83 1.24 1.73l.51 5.06h6.49c.52 0 1 .38 1.27 1 .26.6.26 1.36.01 1.99z"/><path class="bshp14" d="M138.55 80.76c-18.64 0-33.75 15.25-33.75 34.07"/><path class="bshp15" d="M219.86 111.7l-12.16-7.07c-.71-.41-2.03.56-2.44 1.27-.41.7-.6 2.33.11 2.75l4.07 2.37-4.95-1.77c-.79-.17-1.4.03-1.57.83-.14.64.25 1.12.79 1.44.13.07.32.05.47.09l14.48 3.08c.71.15 1.5-.36 1.76-1.04.27-.68.07-1.58-.56-1.95z"/><path class="bshp16" d="M219.86 111.7l-12.16-7.07c-.71-.41-2.03.56-2.44 1.27-.41.7-.6 2.34.11 2.75l4.07 2.37-4.95-1.77c-.79-.17-1.4.03-1.57.83-.14.64.25 1.12.79 1.44.13.07.32.05.47.09l14.48 3.08c.71.15 1.5-.36 1.76-1.04.27-.68.07-1.58-.56-1.95z"/><path class="bshp17" d="M214.6 120.72l-4.06-2.36 5.63.58c.79.17 1.75-.62 1.92-1.42.17-.8-.25-1.73-1.05-1.9l-14.4-3.19c-.71-.15-1.58.49-1.84 1.17-.27.68-.15 1.71.49 2.07l1.1.64.18 4.14 6.03 3.5 3.71-1.87 1.12.65c.71.41 1.45.45 1.86-.26.41-.7.01-1.33-.69-1.75z"/><path class="bshp16" d="M214.6 120.72l-4.06-2.36 5.63.58c.79.17 1.75-.62 1.92-1.42.17-.8-.25-1.73-1.05-1.9l-14.4-3.19c-.71-.15-1.58.49-1.84 1.17-.27.68-.15 1.71.49 2.07l1.1.64.18 4.14 6.03 3.5 3.71-1.87 1.12.65c.71.41 1.45.45 1.86-.26.41-.7.02-1.33-.69-1.75z"/><path class="bshp18" d="M238.62 65.45c-9.53-5.53-21.75-2.3-27.29 7.23-2.67 4.58-2.63 9.89-2.34 14.8.66 10.86-4.77 13.39-1.75 15.14l7.3 4.24 7.33 4.26c3.01 1.75 2.51-4.22 12.28-9.01 4.42-2.18 8.97-4.65 11.63-9.23 5.54-9.53 2.36-21.88-7.16-27.43z"/><path class="bshp12" d="M238.62 65.45c-9.53-5.53-21.75-2.3-27.29 7.23-2.67 4.58-2.63 9.89-2.34 14.8.67 10.86-4.76 13.39-1.75 15.14l7.3 4.24 7.33 4.26c3.01 1.76 2.51-4.21 12.28-9.01 4.42-2.18 8.97-4.65 11.63-9.23 5.54-9.53 2.36-21.88-7.16-27.43z"/><path class="bshp19" d="M233.39 92.6c-.09.07-9.12 7.12-13.6 15.49-.27.52-.8.77-1.18.59-.02-.01-.03-.01-.04-.02-.35-.2-.42-.76-.16-1.25 3.76-7.03 10.27-12.97 13.04-15.31l-2.42-1.41c-.31-.18-.41-.65-.23-1.1l-2.54 2.25c-.35.31-.78.35-1.03.1-.26-.25-.28-.72-.06-1.15l.86-1.65-1.95 1.86c-.36.34-.81.4-1.07.13-.27-.27-.27-.77-.02-1.21l.99-1.7-1.69 1.52c-.35.31-.79.36-1.04.1-.26-.26-.27-.75-.04-1.18l1.58-2.87-.6.39c-.27.18-.57.21-.79.08l-2.32-1.35c-1.17 7.86-6.68 18.27-6.93 18.74-.28.51-.81.77-1.19.58-.4-.15-.47-.75-.2-1.26.07-.12 6.38-12.05 6.82-19.45.02-.37.21-.74.5-.97.29-.24.63-.29.88-.15l3.15 1.84 2.66-1.77c.35-.23.73-.21.95.06.21.27.21.73-.01 1.13l-.92 1.68 1.98-1.78c.35-.32.79-.36 1.05-.1.26.27.26.77.01 1.2l-.74 1.26 1.39-1.32c.35-.33.79-.38 1.05-.14.27.24.3.73.07 1.17l-1.08 2.07 2.13-1.89c.34-.3.75-.34 1.02-.11.25.22.3.68.1 1.1l-1.1 2.42 2.93 1.7c.24.14.35.43.31.78-.04.34-.24.69-.52.9z"/><path class="bshp14" d="M238.39 71.08c-8.41-4.89-19.23-1.97-24.16 6.52"/><path class="bshp20" d="M65.81 180.23l-2.8 9.57c-.16.56.73 1.3 1.29 1.46.56.17 1.71.02 1.87-.54l.94-3.21-.37 3.71c.01.58.25.96.83.94.47-.01.73-.36.86-.78.03-.11-.02-.24-.02-.35l-.34-10.48c-.01-.51-.51-.97-1.02-1.04-.51-.06-1.1.22-1.24.72z"/><path class="bshp16" d="M65.81 180.23l-2.8 9.57c-.16.55.73 1.3 1.29 1.46.55.17 1.71.01 1.87-.54l.94-3.21-.37 3.71c.01.58.25.96.83.94.47-.01.73-.36.86-.79.03-.1-.02-.23-.02-.34l-.34-10.48c-.01-.52-.51-.97-1.02-1.04-.51-.06-1.1.22-1.24.72z"/><path class="bshp21" d="M72.91 182.32l-.93 3.2-.56-3.98c-.02-.58-.73-1.1-1.3-1.08-.58.02-1.15.47-1.13 1.05l.25 10.45c.01.51.61 1 1.12 1.06.51.07 1.19-.19 1.34-.68l.25-.87 2.82-.83 1.38-4.74-1.92-2.24.26-.88c.16-.56.06-1.07-.49-1.24-.56-.16-.93.22-1.09.78z"/><path class="bshp16" d="M72.91 182.32l-.93 3.2-.56-3.98c-.02-.58-.73-1.1-1.3-1.08-.58.02-1.15.47-1.13 1.05l.25 10.44c.01.52.61 1.01 1.12 1.07.51.07 1.19-.19 1.34-.68l.25-.87 2.82-.83 1.38-4.74-1.92-2.24.26-.88c.16-.56.06-1.08-.49-1.24-.56-.16-.93.22-1.09.78z"/><path class="bshp22" d="M30.8 175.19c-2.18 7.5 2.12 15.36 9.61 17.55 3.6 1.05 7.25.13 10.58-.92 7.36-2.29 10.02 1.01 10.71-1.36l1.68-5.74 1.69-5.77c.69-2.37-3.33-1.01-8.29-6.92-2.25-2.67-4.73-5.38-8.33-6.43-7.5-2.19-15.45 2.09-17.65 9.59z"/><path class="bshp12" d="M30.8 175.19c-2.18 7.5 2.12 15.36 9.61 17.55 3.6 1.05 7.25.13 10.58-.92 7.36-2.29 10.02 1.01 10.71-1.36l1.68-5.74 1.69-5.77c.69-2.37-3.33-1.01-8.29-6.92-2.25-2.67-4.73-5.38-8.33-6.43-7.5-2.19-15.45 2.09-17.65 9.59z"/><path class="bshp19" d="M50.37 174.17c.06.05 6.45 5.06 12.97 6.72.4.1.67.42.6.72v.03c-.08.27-.45.41-.84.32-5.47-1.39-10.66-4.86-12.75-6.37l-.55 1.9c-.08.25-.38.39-.72.35l1.98 1.36c.27.19.37.48.24.7-.13.22-.45.31-.78.23l-1.28-.31 1.61 1.03c.3.18.41.48.27.71-.14.23-.48.32-.83.22l-1.33-.39 1.33.9c.27.19.37.49.24.7-.13.22-.46.31-.8.23l-2.25-.6.38.35c.16.15.24.35.19.52l-.54 1.83c5.61-.53 13.7 1.49 14.07 1.59.4.1.67.42.61.72-.05.29-.45.45-.85.34-.09-.02-9.36-2.34-14.53-1.38a.982.982 0 01-.76-.18c-.21-.16-.3-.38-.24-.58l.72-2.48-1.66-1.53c-.22-.2-.27-.47-.13-.66.16-.19.47-.27.78-.18l1.31.34-1.56-1.06c-.28-.19-.38-.48-.24-.71.14-.22.48-.3.82-.2l.99.29-1.14-.73c-.29-.19-.4-.48-.28-.7.12-.23.45-.33.79-.25l1.61.39-1.66-1.14c-.26-.18-.36-.46-.25-.68.11-.22.42-.32.75-.26l1.84.34.67-2.3c.06-.18.24-.32.49-.35.24-.03.51.05.71.21z"/><path class="bshp14" d="M34.71 174.39c-1.94 6.61 1.91 13.56 8.59 15.52"/><path class="bshp23" d="M133.52 58.14c-1.38 0-2.49-1.11-2.49-2.49v-17.7a2.49 2.49 0 014.98 0v17.7a2.49 2.49 0 01-2.49 2.49z"/><path class="bshp24" d="M158.12 68.68a2.485 2.485 0 01-.62-3.46l10.13-14.52a2.49 2.49 0 013.47-.62c1.12.79 1.4 2.34.61 3.46l-10.12 14.53a2.497 2.497 0 01-3.47.61z"/><path class="bshp25" d="M174.01 84.42a2.488 2.488 0 011.05-3.36l15.68-8.22c1.22-.64 2.72-.17 3.36 1.05.63 1.21.17 2.72-1.05 3.36l-15.68 8.22c-1.22.64-2.72.17-3.36-1.05z"/><path class="bshp26" d="M108.36 68.68c1.12-.78 1.4-2.33.61-3.46L98.85 50.7a2.49 2.49 0 00-3.47-.62c-1.12.79-1.4 2.34-.61 3.46l10.12 14.53c.79 1.12 2.34 1.4 3.47.61z"/><path class="bshp27" d="M92.36 84.42c.64-1.21.17-2.72-1.04-3.36l-15.68-8.22a2.483 2.483 0 00-3.36 1.05 2.488 2.488 0 001.05 3.36L89 85.47c1.22.64 2.72.17 3.36-1.05z"/><path class="bshp28" d="M164.87 231.48l22.05-52.42s39.34 10.89 55.98-10.77c.84-1.09-1.14 6.49-1.14 6.49l-17.86 48.36s-6.96 25.36-58.73 7.65"/><path class="bshp29" d="M225.07 199.82s-12.64 6.23-37.5-.25m37.45 6.42s-9.82 7.34-35.05 2.51m32.2 5.57s-7.41 7.14-34.47 2.14m32.84 6.43s-13.04 6.83-42.16-1.13"/><path class="bshp30" d="M182.94 187.28l3.98-8.22s39.34 10.89 55.98-10.77c.84-1.09-1.14 6.49-1.14 6.49s-2.62 27.6-58.18 13.14"/><path class="bshp31" d="M216.21 209.12c7.71 8.57 5.02 17.56 4.2 19.74l27.36-66.98c-.16-9.9-5.79-14.63-5.79-14.63s-25.97 61.65-25.77 61.87zm3.99 20.23s.09-.17.21-.49l-.21.49z"/><path class="bshp32" d="M247.77 161.88c-.16-9.9-5.79-14.63-5.79-14.63s-25.97 61.65-25.77 61.87c8.85 9.83 4 20.23 4 20.23l27.56-67.47z"/><path class="bshp33" d="M191.43 184.75c-.47 1-1.6 1.47-2.52 1.04-.93-.44-1.3-1.61-.82-2.61.47-1.01 1.6-1.48 2.53-1.04.92.43 1.29 1.6.81 2.61z"/><path class="bshp34" d="M196.38 185.54c-.39 1.04-1.48 1.59-2.44 1.23-.95-.35-1.41-1.49-1.02-2.52.39-1.05 1.48-1.61 2.43-1.24.96.35 1.42 1.49 1.03 2.53z"/><path class="bshp35" d="M201.21 186.43c-.36 1.05-1.44 1.63-2.4 1.3-.97-.33-1.46-1.45-1.09-2.5.36-1.05 1.43-1.64 2.4-1.31.96.33 1.45 1.46 1.09 2.51z"/><path class="bshp28" d="M82.54 2.56l-1.66 56.47s-40.35 3.98-48.02 30c-.39 1.32-1.27-6.41-1.27-6.41l-.75-51.21S28.22 5.43 82.52 3.31"/><path class="bshp29" d="M42.5 64.69s4.99-7.99 29.67-14.48m-31.16 6.5s2.28-7.45 26.47-15.55m-27.94 6.88s11.77-12.83 28.43-15.35m-31.19 7.15S52.51 24.8 72.66 23.15"/><path class="bshp30" d="M81.63 2.93l-.66 12.57s-40.44.46-48.11 26.48c-.39 1.31-1.27-6.42-1.27-6.42s-7.44-26.51 49.21-33"/><path class="bshp36" d="M30.65 96.72c3.69 9.11 10.59 11.48 10.59 11.48s2.01-66.41 1.74-66.54c-11.71-5.95-11.9-12.32-11.9-12.32l-.43 67.38z"/><path class="bshp32" d="M30.65 96.72c3.69 9.11 10.59 11.48 10.59 11.48s2.01-66.41 1.74-66.54c-11.71-5.95-11.9-12.32-11.9-12.32l-.43 67.38z"/></g></svg></svg>